<svg width="1600" height="680" viewBox="0 0 1600 680" fill="none" xmlns="http://www.w3.org/2000/svg">
    <g opacity="0.02">
        <path
            d="M94.2778 679.372H-185.555C-212.116 679.372 -233.723 658.908 -233.723 633.761V117.967C-233.723 92.8181 -212.115 72.3555 -185.555 72.3555H94.2778C120.838 72.3555 142.446 92.8181 142.446 117.967V208.842C142.446 211.722 141.237 214.485 139.086 216.521C136.935 218.558 134.018 219.702 130.977 219.702C129.47 219.702 127.979 219.421 126.588 218.875C125.196 218.33 123.932 217.53 122.867 216.521C120.716 214.485 119.508 211.722 119.508 208.842V117.967C119.508 104.791 108.184 94.0744 94.2778 94.0744H-185.555C-199.466 94.0744 -210.786 104.797 -210.786 117.967V633.761C-210.786 646.937 -199.463 657.653 -185.555 657.653H94.2778C108.187 657.653 119.508 646.931 119.508 633.761V550.208C119.508 547.327 120.716 544.565 122.867 542.528C125.018 540.492 127.935 539.347 130.977 539.347C134.018 539.347 136.935 540.492 139.086 542.528C141.237 544.565 142.446 547.327 142.446 550.208V633.761C142.446 658.908 120.838 679.372 94.2778 679.372Z"
            fill="white" />
        <path
            d="M79.3698 594.148H-170.646C-176.119 594.142 -181.366 592.08 -185.236 588.415C-189.106 584.75 -191.283 579.782 -191.289 574.599V177.127C-191.282 171.945 -189.105 166.977 -185.235 163.312C-181.365 159.648 -176.119 157.586 -170.646 157.58H79.3698C84.8426 157.586 90.0892 159.647 93.9591 163.312C97.8289 166.976 100.006 171.945 100.013 177.127V208.842C100.013 210.268 99.7164 211.68 99.1402 212.998C98.564 214.315 97.7194 215.513 96.6545 216.521C95.5897 217.53 94.3254 218.33 92.9341 218.875C91.5427 219.421 90.0514 219.702 88.5453 219.702C85.5036 219.702 82.5864 218.558 80.4355 216.521C78.2847 214.485 77.0763 211.722 77.0763 208.842V179.294H-168.353V572.427H77.0763V550.208C77.0763 547.327 78.2847 544.565 80.4355 542.528C82.5864 540.492 85.5036 539.347 88.5453 539.347C90.0514 539.347 91.5427 539.628 92.9341 540.174C94.3254 540.72 95.5897 541.52 96.6545 542.528C97.7194 543.537 98.564 544.734 99.1402 546.052C99.7164 547.369 100.013 548.781 100.013 550.208V574.599C100.007 579.782 97.8301 584.751 93.9602 588.416C90.0902 592.081 84.843 594.142 79.3698 594.148Z"
            fill="white" />
        <path
            d="M93.9876 514.416C13.3041 514.416 -52.3359 452.26 -52.3359 375.867C-52.3359 299.473 13.3074 237.306 93.9876 237.306C174.668 237.306 240.306 299.462 240.306 375.864C240.306 452.265 174.669 514.416 93.9876 514.416ZM93.9876 259.03C25.951 259.03 -29.3996 311.446 -29.3996 375.867C-29.3996 440.287 25.951 492.696 93.9876 492.696C162.024 492.696 217.365 440.289 217.365 375.867C217.365 311.444 162.022 259.027 93.9876 259.027V259.03Z"
            fill="white" />
        <path
            d="M28.9374 554.806C27.5912 554.806 26.2555 554.582 24.991 554.145C-53.6441 526.852 -106.477 455.21 -106.477 375.861C-106.477 297.509 -56.7877 228.216 20.1117 199.337C22.9404 198.281 26.0957 198.329 28.8868 199.472C31.6779 200.614 33.8772 202.757 35.0032 205.432C36.1233 208.109 36.0747 211.099 34.8683 213.743C33.6618 216.387 31.396 218.47 28.569 219.533C-39.5335 245.112 -83.5369 306.471 -83.5369 375.864C-83.5369 446.131 -36.7482 509.577 32.8871 533.749C35.7436 534.742 38.067 536.767 39.3467 539.381C40.6264 541.995 40.7577 544.983 39.7118 547.689C38.9011 549.777 37.4332 551.579 35.5064 552.851C33.5796 554.124 31.2867 554.806 28.9374 554.806Z"
            fill="white" />
        <path
            d="M126.608 468.579H61.379C59.873 468.58 58.3816 468.299 56.9901 467.753C55.5987 467.208 54.3343 466.408 53.2693 465.4C52.2043 464.391 51.3595 463.194 50.7831 461.877C50.2067 460.559 49.91 459.147 49.91 457.721V417.607H7.5393C6.03317 417.607 4.5418 417.326 3.15031 416.78C1.75883 416.234 0.494497 415.435 -0.570498 414.426C-1.63549 413.418 -2.48029 412.22 -3.05666 410.903C-3.63303 409.585 -3.92969 408.173 -3.92969 406.747V344.981C-3.92969 342.101 -2.72135 339.338 -0.570498 337.302C1.58036 335.265 4.49754 334.121 7.5393 334.121H49.91V293.999C49.91 292.573 50.2067 291.16 50.783 289.843C51.3594 288.525 52.2042 287.328 53.2692 286.32C54.3342 285.311 55.5985 284.511 56.99 283.965C58.3815 283.42 59.8729 283.139 61.379 283.139H126.608C129.65 283.139 132.566 284.283 134.717 286.32C136.867 288.357 138.076 291.119 138.076 293.999V334.121H180.441C181.947 334.121 183.439 334.401 184.83 334.947C186.222 335.493 187.486 336.293 188.551 337.301C189.617 338.31 190.461 339.507 191.038 340.825C191.614 342.143 191.91 343.555 191.91 344.981V406.747C191.91 408.173 191.614 409.585 191.038 410.903C190.461 412.221 189.617 413.418 188.551 414.427C187.486 415.435 186.222 416.235 184.83 416.781C183.439 417.326 181.947 417.607 180.441 417.607H138.07V457.721C138.07 460.6 136.863 463.361 134.714 465.397C132.564 467.434 129.649 468.578 126.608 468.579ZM72.8531 446.861H115.139V406.747C115.139 405.32 115.436 403.908 116.012 402.59C116.588 401.273 117.433 400.075 118.498 399.067C119.563 398.058 120.827 397.258 122.219 396.713C123.611 396.167 125.102 395.886 126.608 395.886H168.972V355.841H126.608C125.102 355.842 123.611 355.561 122.219 355.015C120.827 354.469 119.563 353.669 118.498 352.661C117.433 351.652 116.588 350.455 116.012 349.137C115.436 347.82 115.139 346.407 115.139 344.981V304.859H72.8531V344.981C72.8531 347.861 71.6447 350.624 69.4939 352.66C67.343 354.697 64.4258 355.841 61.3841 355.841H19.0134V395.886H61.3841C64.4258 395.886 67.343 397.031 69.4939 399.067C71.6447 401.104 72.8531 403.866 72.8531 406.747V446.861Z"
            fill="white" />
        <path
            d="M1552.68 679.372H1282.02C1260.52 679.372 1243.02 662.811 1243.02 642.45V556.347C1243.02 553.466 1244.23 550.704 1246.38 548.667C1248.53 546.631 1251.45 545.487 1254.49 545.487C1257.53 545.487 1260.45 546.631 1262.6 548.667C1264.75 550.704 1265.96 553.466 1265.96 556.347V642.448C1265.97 646.479 1267.66 650.343 1270.67 653.194C1273.68 656.044 1277.76 657.647 1282.02 657.652H1552.68C1556.93 657.647 1561.01 656.044 1564.02 653.194C1567.03 650.343 1568.73 646.479 1568.73 642.448V126.961C1568.73 122.93 1567.03 119.066 1564.02 116.216C1561.01 113.366 1556.93 111.762 1552.68 111.757H1282.02C1277.76 111.762 1273.68 113.366 1270.67 116.216C1267.66 119.066 1265.97 122.93 1265.96 126.961V195.015C1265.96 197.895 1264.75 200.657 1262.6 202.694C1260.45 204.731 1257.53 205.875 1254.49 205.875C1251.45 205.875 1248.53 204.731 1246.38 202.694C1244.23 200.657 1243.02 197.895 1243.02 195.015V126.961C1243.02 106.599 1260.52 90.0383 1282.02 90.0383H1552.68C1574.18 90.0383 1591.67 106.599 1591.67 126.961V642.448C1591.67 662.811 1574.17 679.372 1552.68 679.372Z"
            fill="white" />
        <path
            d="M1580.64 610.106H1254.93C1251.89 610.106 1248.97 608.961 1246.82 606.925C1244.67 604.888 1243.46 602.126 1243.46 599.245V488.076C1243.46 485.195 1244.67 482.433 1246.82 480.396C1248.97 478.36 1251.89 477.215 1254.93 477.215C1257.98 477.215 1260.89 478.36 1263.04 480.396C1265.19 482.433 1266.4 485.195 1266.4 488.076V588.385H1569.17V180.417H1266.4V222.084C1266.4 224.964 1265.19 227.726 1263.04 229.763C1260.89 231.8 1257.98 232.944 1254.93 232.944C1251.89 232.944 1248.97 231.8 1246.82 229.763C1244.67 227.726 1243.46 224.964 1243.46 222.084V169.557C1243.46 168.131 1243.76 166.719 1244.34 165.401C1244.91 164.084 1245.76 162.887 1246.82 161.878C1247.89 160.87 1249.15 160.07 1250.55 159.525C1251.94 158.979 1253.43 158.698 1254.93 158.698H1580.64C1582.15 158.698 1583.64 158.979 1585.03 159.525C1586.42 160.07 1587.69 160.87 1588.75 161.878C1589.82 162.887 1590.66 164.084 1591.24 165.401C1591.81 166.719 1592.11 168.131 1592.11 169.557V599.25C1592.11 602.13 1590.9 604.891 1588.75 606.926C1586.6 608.962 1583.68 610.106 1580.64 610.106Z"
            fill="white" />
        <path
            d="M1765.61 679.372H1225.44C1223.92 679.39 1222.42 679.122 1221.01 678.584C1219.6 678.046 1218.32 677.249 1217.24 676.239C1216.16 675.229 1215.3 674.026 1214.72 672.699C1214.13 671.373 1213.83 669.95 1213.83 668.513C1213.83 667.076 1214.13 665.653 1214.72 664.326C1215.3 663 1216.16 661.797 1217.24 660.787C1218.32 659.777 1219.6 658.98 1221.01 658.442C1222.42 657.904 1223.92 657.636 1225.44 657.653H1765.61C1767.13 657.636 1768.64 657.904 1770.04 658.442C1771.45 658.98 1772.73 659.777 1773.81 660.787C1774.89 661.797 1775.75 663 1776.33 664.326C1776.92 665.653 1777.22 667.076 1777.22 668.513C1777.22 669.95 1776.92 671.373 1776.33 672.699C1775.75 674.026 1774.89 675.229 1773.81 676.239C1772.73 677.249 1771.45 678.046 1770.04 678.584C1768.64 679.122 1767.13 679.39 1765.61 679.372Z"
            fill="white" />
        <path
            d="M1367.94 388.42C1365.67 388.42 1363.45 387.784 1361.57 386.591C1359.68 385.398 1358.21 383.702 1357.34 381.718C1356.47 379.734 1356.25 377.55 1356.69 375.444C1357.13 373.337 1358.22 371.402 1359.83 369.883L1473.08 262.641C1475.23 260.603 1478.15 259.459 1481.19 259.459C1484.23 259.459 1487.15 260.603 1489.3 262.641C1491.45 264.678 1492.66 267.441 1492.66 270.323C1492.66 273.204 1491.45 275.967 1489.3 278.004L1376.05 385.245C1374.98 386.254 1373.72 387.054 1372.33 387.599C1370.94 388.144 1369.44 388.423 1367.94 388.42Z"
            fill="white" />
        <path
            d="M1377.4 514.667C1375.13 514.668 1372.91 514.031 1371.03 512.838C1369.14 511.645 1367.67 509.949 1366.8 507.964C1365.93 505.98 1365.71 503.796 1366.15 501.69C1366.59 499.583 1367.68 497.647 1369.29 496.128L1482.54 388.888C1484.69 386.851 1487.61 385.708 1490.65 385.708C1493.69 385.709 1496.61 386.854 1498.76 388.892C1500.91 390.929 1502.12 393.692 1502.12 396.572C1502.12 399.453 1500.91 402.215 1498.76 404.251L1385.51 511.494C1384.44 512.502 1383.18 513.301 1381.79 513.846C1380.4 514.39 1378.91 514.669 1377.4 514.667Z"
            fill="white" />
        <path
            d="M994.019 520.479C889.484 520.479 804.441 439.945 804.441 340.959C804.441 241.973 889.484 161.449 994.019 161.449C1098.56 161.449 1183.59 241.973 1183.59 340.959C1183.59 439.945 1098.55 520.479 994.019 520.479ZM994.019 183.168C902.136 183.168 827.376 253.952 827.376 340.959C827.376 427.966 902.132 498.758 994.019 498.758C1085.91 498.758 1160.66 427.973 1160.66 340.959C1160.66 253.946 1085.91 183.168 994.019 183.168Z"
            fill="white" />
        <path
            d="M713.171 679.372C692.729 679.372 673.509 671.831 659.052 658.146C629.217 629.893 629.217 583.917 659.052 555.663L761.705 458.458C736.273 413.327 726 360.889 732.734 309.831C733.518 303.883 739.263 299.624 745.535 300.405C747.029 300.582 748.472 301.035 749.782 301.74C751.091 302.445 752.241 303.387 753.166 304.513C754.091 305.639 754.772 306.926 755.172 308.301C755.571 309.677 755.68 311.113 755.493 312.528C749.011 361.695 759.794 412.261 785.862 454.904C787.129 456.975 787.637 459.385 787.308 461.758C786.979 464.132 785.832 466.335 784.043 468.027L675.27 571.025C654.381 590.811 654.381 623.009 675.27 642.795C696.16 662.581 730.167 662.571 751.066 642.795L859.838 539.795C861.624 538.102 863.951 537.014 866.458 536.703C868.964 536.392 871.509 536.873 873.696 538.073C967.727 589.624 1087.11 574.767 1164.01 501.948C1212.29 456.234 1237.82 392.961 1234.06 328.358C1230.25 262.876 1198.1 204.021 1143.53 162.634C1064.32 102.564 949.411 97.0671 864.08 149.262C861.525 150.825 858.419 151.363 855.445 150.757C852.471 150.152 849.874 148.452 848.223 146.033C846.573 143.613 846.005 140.672 846.645 137.856C847.284 135.041 849.079 132.581 851.634 131.018C945.144 73.8261 1071.08 79.858 1157.87 145.679C1217.59 190.97 1252.79 255.424 1256.96 327.164C1261.08 397.908 1233.11 467.224 1180.23 517.297C1098.09 595.076 971.69 612.5 869.929 560.941L767.278 658.146C752.827 671.831 733.608 679.372 713.171 679.372Z"
            fill="white" />
        <path
            d="M821.944 514.76C820.437 514.762 818.945 514.482 817.553 513.936C816.16 513.39 814.896 512.589 813.832 511.579L767.829 468.021C766.764 467.012 765.919 465.815 765.342 464.497C764.766 463.178 764.469 461.766 764.469 460.339C764.469 458.913 764.766 457.5 765.342 456.182C765.919 454.864 766.764 453.666 767.829 452.657C768.894 451.648 770.159 450.848 771.551 450.302C772.943 449.756 774.435 449.475 775.941 449.475C777.448 449.475 778.94 449.756 780.332 450.302C781.724 450.848 782.989 451.648 784.054 452.657L830.063 496.217C831.667 497.736 832.758 499.671 833.2 501.777C833.642 503.884 833.415 506.067 832.546 508.051C831.678 510.035 830.208 511.731 828.322 512.924C826.436 514.117 824.219 514.754 821.951 514.754L821.944 514.76Z"
            fill="white" />
        <path
            d="M1050.13 340.963C1050.13 324.515 1064.21 311.181 1081.58 311.181C1098.95 311.181 1113.03 324.515 1113.03 340.963C1113.03 357.41 1098.95 370.746 1081.58 370.746C1064.21 370.746 1050.13 357.418 1050.13 340.963Z"
            fill="white" />
        <path
            d="M933.554 298.859C950.925 298.859 965.007 285.525 965.007 269.076C965.007 252.627 950.925 239.292 933.554 239.292C916.183 239.292 902.102 252.627 902.102 269.076C902.102 285.525 916.183 298.859 933.554 298.859Z"
            fill="white" />
        <path
            d="M953.164 450.101C970.534 450.101 984.616 436.767 984.616 420.318C984.616 403.869 970.534 390.535 953.164 390.535C935.793 390.535 921.711 403.869 921.711 420.318C921.711 436.767 935.793 450.101 953.164 450.101Z"
            fill="white" />
        <path
            d="M1050.13 351.816H879.882C878.364 351.834 876.858 351.566 875.45 351.028C874.043 350.49 872.762 349.693 871.682 348.683C870.602 347.672 869.745 346.469 869.16 345.143C868.575 343.817 868.273 342.394 868.273 340.957C868.273 339.519 868.575 338.096 869.16 336.77C869.745 335.444 870.602 334.241 871.682 333.231C872.762 332.221 874.043 331.424 875.45 330.886C876.858 330.348 878.364 330.08 879.882 330.097H1050.13C1053.15 330.132 1056.03 331.291 1058.15 333.324C1060.27 335.357 1061.46 338.099 1061.46 340.957C1061.46 343.814 1060.27 346.557 1058.15 348.589C1056.03 350.622 1053.15 351.781 1050.13 351.816Z"
            fill="white" />
        <path
            d="M1055.56 279.933H965.008C961.966 279.933 959.049 278.789 956.898 276.752C954.747 274.715 953.539 271.953 953.539 269.073C953.539 266.192 954.747 263.43 956.898 261.393C959.049 259.357 961.966 258.212 965.008 258.212H1055.56C1058.6 258.212 1061.52 259.357 1063.67 261.393C1065.82 263.43 1067.03 266.192 1067.03 269.073C1067.03 271.953 1065.82 274.715 1063.67 276.752C1061.52 278.789 1058.6 279.933 1055.56 279.933Z"
            fill="white" />
        <path
            d="M1058.49 431.182H961.563C958.521 431.182 955.604 430.038 953.453 428.001C951.302 425.964 950.094 423.202 950.094 420.322C950.094 417.441 951.302 414.679 953.453 412.642C955.604 410.605 958.521 409.461 961.563 409.461H1058.49C1061.53 409.461 1064.45 410.605 1066.6 412.642C1068.75 414.679 1069.96 417.441 1069.96 420.322C1069.96 423.202 1068.75 425.964 1066.6 428.001C1064.45 430.038 1061.53 431.182 1058.49 431.182Z"
            fill="white" />
        <path
            d="M1135.47 679.372H624.272C622.755 679.39 621.248 679.122 619.841 678.584C618.433 678.046 617.152 677.249 616.073 676.239C614.993 675.229 614.136 674.026 613.55 672.699C612.965 671.373 612.664 669.95 612.664 668.513C612.664 667.076 612.965 665.653 613.55 664.326C614.136 663 614.993 661.797 616.073 660.787C617.152 659.777 618.433 658.98 619.841 658.442C621.248 657.904 622.755 657.636 624.272 657.653H1135.47C1136.99 657.636 1138.49 657.904 1139.9 658.442C1141.31 658.98 1142.59 659.777 1143.67 660.787C1144.75 661.797 1145.61 663 1146.19 664.326C1146.78 665.653 1147.08 667.076 1147.08 668.513C1147.08 669.95 1146.78 671.373 1146.19 672.699C1145.61 674.026 1144.75 675.229 1143.67 676.239C1142.59 677.249 1141.31 678.046 1139.9 678.584C1138.49 679.122 1136.99 679.39 1135.47 679.372Z"
            fill="white" />
        <path
            d="M647.157 435.807H583.228C567.905 435.807 555.438 423.996 555.438 409.488V388.379C555.437 386.953 555.734 385.54 556.31 384.223C556.886 382.905 557.731 381.708 558.796 380.699C559.861 379.691 561.126 378.891 562.517 378.345C563.909 377.799 565.4 377.519 566.906 377.519H663.48C664.986 377.519 666.478 377.799 667.869 378.345C669.261 378.891 670.525 379.691 671.59 380.699C672.656 381.708 673.5 382.905 674.077 384.223C674.653 385.54 674.949 386.953 674.949 388.379V409.488C674.949 423.994 662.481 435.807 647.157 435.807ZM578.37 399.238V409.488C578.371 410.707 578.883 411.875 579.792 412.737C580.702 413.599 581.936 414.084 583.223 414.086H647.157C648.445 414.085 649.679 413.601 650.59 412.739C651.5 411.876 652.012 410.707 652.013 409.488V399.238H578.37Z"
            fill="white" />
        <path
            d="M518.961 598.874C459.576 598.874 411.26 553.127 411.26 496.892V230.604C411.26 200.017 384.981 175.134 352.681 175.134C320.382 175.134 294.106 200.017 294.106 230.604V524.907C294.106 527.787 292.898 530.55 290.747 532.586C288.596 534.623 285.679 535.767 282.637 535.767C279.595 535.767 276.678 534.623 274.527 532.586C272.376 530.55 271.168 527.787 271.168 524.907V230.604C271.168 188.034 307.733 153.414 352.681 153.414C397.629 153.414 434.205 188.038 434.205 230.604V496.892C434.205 541.143 472.232 577.152 518.961 577.152C565.691 577.152 603.721 541.143 603.721 496.892V424.954C603.703 423.517 603.986 422.091 604.554 420.758C605.122 419.425 605.964 418.212 607.031 417.19C608.097 416.167 609.368 415.356 610.768 414.802C612.169 414.247 613.672 413.962 615.19 413.962C616.707 413.962 618.21 414.247 619.611 414.802C621.011 415.356 622.282 416.167 623.348 417.19C624.415 418.212 625.257 419.425 625.825 420.758C626.393 422.091 626.676 423.517 626.658 424.954V496.892C626.659 553.127 578.348 598.874 518.961 598.874Z"
            fill="white" />
        <path
            d="M300.485 679.372H264.785C263.279 679.373 261.788 679.092 260.397 678.546C259.005 678.001 257.741 677.201 256.676 676.192C255.611 675.184 254.766 673.987 254.189 672.669C253.613 671.352 253.316 669.94 253.316 668.514V630.359C253.316 628.933 253.613 627.52 254.189 626.203C254.766 624.885 255.611 623.688 256.676 622.68C257.741 621.672 259.005 620.872 260.397 620.326C261.788 619.781 263.279 619.5 264.785 619.5H300.485C301.991 619.5 303.483 619.78 304.874 620.326C306.266 620.871 307.53 621.671 308.596 622.679C309.661 623.688 310.505 624.885 311.082 626.203C311.658 627.52 311.955 628.933 311.954 630.359V668.514C311.955 669.94 311.658 671.352 311.082 672.67C310.505 673.987 309.661 675.185 308.596 676.193C307.53 677.201 306.266 678.001 304.874 678.547C303.483 679.092 301.991 679.373 300.485 679.372ZM276.254 657.652H289.026V641.219H276.254V657.652Z"
            fill="white" />
        <path
            d="M685.24 399.238H554.666C530.341 399.238 510.555 380.513 510.555 357.467V185.468C510.555 131.575 556.863 87.729 613.772 87.729H685.242C686.748 87.7288 688.239 88.0095 689.63 88.5551C691.022 89.1007 692.286 89.9005 693.351 90.9089C694.416 91.9172 695.261 93.1143 695.837 94.4319C696.414 95.7494 696.711 97.1616 696.711 98.5877V388.379C696.711 389.805 696.414 391.218 695.837 392.535C695.261 393.853 694.416 395.05 693.351 396.058C692.285 397.067 691.021 397.867 689.629 398.412C688.238 398.958 686.746 399.238 685.24 399.238ZM613.771 109.448C569.505 109.448 533.491 143.546 533.491 185.467V357.471C533.491 368.525 542.993 377.519 554.666 377.519H673.771V109.453L613.771 109.448Z"
            fill="white" />
        <path
            d="M737.263 263.039H685.239C683.732 263.039 682.241 262.758 680.849 262.213C679.458 261.667 678.193 260.867 677.128 259.859C676.063 258.85 675.218 257.653 674.642 256.335C674.066 255.017 673.769 253.605 673.77 252.179V129.505C673.769 128.079 674.066 126.667 674.642 125.349C675.218 124.031 676.063 122.834 677.128 121.825C678.193 120.817 679.458 120.017 680.849 119.471C682.241 118.926 683.732 118.645 685.239 118.645H737.263C740.304 118.645 743.221 119.79 745.372 121.826C747.522 123.863 748.73 126.625 748.73 129.505V252.179C748.73 255.059 747.522 257.821 745.372 259.858C743.221 261.894 740.304 263.039 737.263 263.039ZM696.701 241.32H725.787V140.364H696.701V241.32Z"
            fill="white" />
        <path
            d="M804.934 170.144H737.264C735.747 170.162 734.24 169.894 732.833 169.356C731.425 168.818 730.145 168.021 729.065 167.011C727.985 166.001 727.128 164.797 726.543 163.471C725.958 162.145 725.656 160.722 725.656 159.285C725.656 157.848 725.958 156.425 726.543 155.098C727.128 153.772 727.985 152.569 729.065 151.559C730.145 150.549 731.425 149.752 732.833 149.214C734.24 148.676 735.747 148.408 737.264 148.425H804.934C806.452 148.408 807.958 148.676 809.366 149.214C810.773 149.752 812.054 150.549 813.134 151.559C814.214 152.569 815.071 153.772 815.656 155.098C816.241 156.425 816.542 157.848 816.542 159.285C816.542 160.722 816.241 162.145 815.656 163.471C815.071 164.797 814.214 166.001 813.134 167.011C812.054 168.021 810.773 168.818 809.366 169.356C807.958 169.894 806.452 170.162 804.934 170.144Z"
            fill="white" />
        <path
            d="M804.934 233.259H737.264C735.747 233.276 734.24 233.008 732.833 232.471C731.425 231.933 730.145 231.136 729.065 230.125C727.985 229.115 727.128 227.912 726.543 226.586C725.958 225.26 725.656 223.837 725.656 222.4C725.656 220.962 725.958 219.539 726.543 218.213C727.128 216.887 727.985 215.684 729.065 214.674C730.145 213.664 731.425 212.866 732.833 212.329C734.24 211.791 735.747 211.523 737.264 211.54H804.934C806.452 211.523 807.958 211.791 809.366 212.329C810.773 212.866 812.054 213.664 813.134 214.674C814.214 215.684 815.071 216.887 815.656 218.213C816.241 219.539 816.542 220.962 816.542 222.4C816.542 223.837 816.241 225.26 815.656 226.586C815.071 227.912 814.214 229.115 813.134 230.125C812.054 231.136 810.773 231.933 809.366 232.471C807.958 233.008 806.452 233.276 804.934 233.259Z"
            fill="white" />
        <path
            d="M626.707 301.143C623.666 301.143 620.748 299.999 618.597 297.962C616.447 295.926 615.238 293.163 615.238 290.283V98.5878C615.238 95.7075 616.447 92.9451 618.597 90.9084C620.748 88.8717 623.666 87.7275 626.707 87.7275C629.749 87.7275 632.666 88.8717 634.817 90.9084C636.968 92.9451 638.176 95.7075 638.176 98.5878V290.283C638.176 293.163 636.968 295.926 634.817 297.962C632.666 299.999 629.749 301.143 626.707 301.143Z"
            fill="white" />
        <path
            d="M308.904 641.219H256.367C253.326 641.219 250.408 640.075 248.258 638.038C246.107 636.001 244.898 633.239 244.898 630.359V541.97C244.898 527.461 257.366 515.66 272.689 515.66H292.584C307.905 515.66 320.373 527.461 320.373 541.97V630.359C320.373 633.239 319.165 636.001 317.014 638.038C314.863 640.075 311.946 641.219 308.904 641.219ZM267.835 619.5H297.435V541.97C297.432 540.753 296.92 539.587 296.011 538.727C295.102 537.866 293.87 537.382 292.584 537.38H272.689C271.403 537.382 270.17 537.866 269.261 538.726C268.351 539.586 267.839 540.753 267.836 541.97L267.835 619.5Z"
            fill="white" />
        <path
            d="M1779.38 679.372H-247.773C-249.279 679.373 -250.771 679.092 -252.162 678.546C-253.554 678.001 -254.818 677.201 -255.883 676.193C-256.948 675.184 -257.793 673.987 -258.369 672.67C-258.946 671.352 -259.242 669.94 -259.242 668.514C-259.242 665.633 -258.034 662.871 -255.883 660.834C-253.732 658.798 -250.815 657.653 -247.773 657.653H1779.38C1780.89 657.636 1782.4 657.904 1783.81 658.442C1785.22 658.98 1786.5 659.777 1787.58 660.787C1788.66 661.797 1789.51 663 1790.1 664.326C1790.68 665.653 1790.98 667.076 1790.98 668.513C1790.98 669.95 1790.68 671.373 1790.1 672.699C1789.51 674.026 1788.66 675.229 1787.58 676.239C1786.5 677.249 1785.22 678.046 1783.81 678.584C1782.4 679.122 1780.89 679.39 1779.38 679.372Z"
            fill="white" />
        <path
            d="M214.401 199.939C190.74 199.939 171.473 181.707 171.473 159.289C171.473 136.871 190.735 118.639 214.401 118.639C238.068 118.639 257.33 136.871 257.33 159.278C257.33 181.685 238.069 199.939 214.401 199.939ZM214.401 140.371C210.448 140.371 206.584 141.481 203.297 143.561C200.01 145.64 197.449 148.596 195.936 152.055C194.424 155.513 194.029 159.319 194.8 162.99C195.572 166.661 197.476 170.033 200.272 172.679C203.067 175.326 206.629 177.128 210.506 177.857C214.384 178.587 218.402 178.211 222.054 176.778C225.706 175.344 228.826 172.918 231.022 169.805C233.217 166.692 234.388 163.032 234.387 159.289C234.382 154.271 232.275 149.46 228.528 145.912C224.781 142.364 219.7 140.369 214.401 140.364V140.371Z"
            fill="white" />
        <path
            d="M344.81 119.146C316.444 119.146 293.367 97.2993 293.367 70.4383C293.367 43.5773 316.444 21.7207 344.81 21.7207C373.177 21.7207 396.259 43.5805 396.259 70.4383C396.259 97.2962 373.177 119.146 344.81 119.146ZM344.81 43.4397C329.092 43.4397 316.304 55.5466 316.304 70.4383C316.304 85.33 329.091 97.4258 344.81 97.4258C360.53 97.4258 373.321 85.3188 373.321 70.4383C373.321 55.5579 360.53 43.4397 344.81 43.4397Z"
            fill="white" />
        <path
            d="M464.086 139.626C445.833 139.626 430.992 125.568 430.992 108.285C430.992 91.0027 445.84 76.9529 464.086 76.9529C482.332 76.9529 497.183 91.0107 497.183 108.285C497.183 125.56 482.337 139.626 464.086 139.626ZM464.086 98.6734C462.077 98.6744 460.114 99.2393 458.445 100.297C456.775 101.354 455.474 102.857 454.706 104.614C453.939 106.372 453.739 108.306 454.131 110.171C454.524 112.036 455.492 113.749 456.913 115.094C458.334 116.438 460.144 117.353 462.115 117.723C464.085 118.093 466.127 117.902 467.982 117.173C469.838 116.444 471.423 115.211 472.538 113.629C473.653 112.047 474.248 110.187 474.247 108.285C474.243 105.736 473.171 103.291 471.266 101.489C469.361 99.6869 466.779 98.6743 464.086 98.6734Z"
            fill="white" />
        <path
            d="M681.664 77.2589C661.065 77.2589 644.312 61.3926 644.312 41.8902C644.312 22.3878 661.066 6.52148 681.664 6.52148C702.261 6.52148 719.015 22.3878 719.015 41.8902C719.015 61.3926 702.263 77.2589 681.664 77.2589ZM681.664 28.2356C678.813 28.2366 676.026 29.038 673.656 30.5386C671.286 32.0392 669.439 34.1716 668.348 36.6662C667.258 39.1607 666.973 41.9054 667.53 44.5532C668.087 47.201 669.46 49.633 671.477 51.5417C673.493 53.4504 676.062 54.75 678.858 55.2764C681.655 55.8027 684.553 55.5321 687.187 54.4987C689.821 53.4654 692.072 51.7156 693.656 49.4708C695.24 47.2259 696.085 44.5868 696.085 41.887C696.08 38.2671 694.559 34.7971 691.855 32.2379C689.152 29.6788 685.486 28.2394 681.664 28.2356Z"
            fill="white" />
        <path
            d="M826.663 102.236C804.078 102.236 785.703 84.8352 785.703 63.4555C785.703 42.0759 804.078 24.6636 826.663 24.6636C849.248 24.6636 867.622 42.0647 867.622 63.4555C867.622 84.8464 849.246 102.236 826.663 102.236ZM826.663 46.3825C823.098 46.3822 819.614 47.3828 816.65 49.2577C813.686 51.1326 811.375 53.7976 810.011 56.9158C808.646 60.034 808.289 63.4653 808.984 66.7759C809.678 70.0865 811.394 73.1276 813.914 75.5148C816.434 77.9019 819.645 79.5279 823.141 80.1871C826.637 80.8463 830.261 80.5091 833.554 79.2181C836.848 77.9272 839.663 75.7405 841.644 72.9345C843.625 70.1285 844.683 66.8292 844.684 63.4539C844.679 58.9293 842.778 54.5914 839.4 51.3915C836.022 48.1917 831.441 46.3909 826.663 46.3841V46.3825Z"
            fill="white" />
        <path
            d="M1006.06 79.429C986.187 79.429 970.02 64.1149 970.02 45.2958C970.02 26.4768 986.19 11.1738 1006.06 11.1738C1025.94 11.1738 1042.11 26.48 1042.11 45.2974C1042.11 64.1149 1025.94 79.429 1006.06 79.429ZM1006.06 32.8928C1003.47 32.8931 1000.94 33.6212 998.784 34.985C996.63 36.3488 994.951 38.287 993.959 40.5546C992.968 42.8221 992.709 45.3171 993.215 47.724C993.721 50.131 994.97 52.3417 996.803 54.0766C998.636 55.8115 1000.97 56.9927 1003.51 57.4708C1006.06 57.9489 1008.69 57.7024 1011.08 56.7625C1013.48 55.8226 1015.52 54.2315 1016.96 52.1904C1018.4 50.1494 1019.17 47.75 1019.17 45.2958C1019.16 42.0072 1017.78 38.8551 1015.32 36.5304C1012.87 34.2057 1009.54 32.8982 1006.06 32.8944V32.8928Z"
            fill="white" />
        <path
            d="M1188.9 121.318C1160.08 121.318 1136.64 99.1139 1136.64 71.8288C1136.64 44.5437 1160.08 22.3398 1188.9 22.3398C1217.72 22.3398 1241.17 44.5405 1241.17 71.8288C1241.17 99.1171 1217.72 121.318 1188.9 121.318ZM1188.9 44.0588C1172.74 44.0588 1159.58 56.5146 1159.58 71.8288C1159.58 87.143 1172.74 99.594 1188.9 99.594C1205.07 99.594 1218.24 87.143 1218.24 71.8288C1218.24 56.5146 1205.08 44.0604 1188.9 44.0604V44.0588Z"
            fill="white" />
        <path
            d="M1389.45 83.1549C1365.24 83.1549 1345.54 64.5071 1345.54 41.5814C1345.54 18.6558 1365.23 0 1389.45 0C1413.66 0 1433.35 18.6574 1433.35 41.5814C1433.35 64.5055 1413.65 83.1549 1389.45 83.1549ZM1389.45 21.7205C1383.89 21.7265 1378.56 23.821 1374.62 27.5444C1370.69 31.2679 1368.48 36.3161 1368.48 41.5814C1368.48 52.5265 1377.88 61.4263 1389.45 61.4263C1394.98 61.3793 1400.26 59.2666 1404.15 55.5478C1408.05 51.829 1410.23 46.8051 1410.23 41.5694C1410.23 36.3337 1408.05 31.3099 1404.15 27.5911C1400.26 23.8723 1394.98 21.7595 1389.45 21.7125V21.7205Z"
            fill="white" />
        <path
            d="M1635.69 84.0891C1612.02 84.0891 1592.77 65.8542 1592.77 43.4391C1592.77 21.024 1612.02 2.78906 1635.69 2.78906C1659.37 2.78906 1678.62 21.0224 1678.62 43.4391C1678.62 65.8558 1659.36 84.0891 1635.69 84.0891ZM1635.69 24.5112C1631.74 24.5103 1627.87 25.6197 1624.59 27.6992C1621.3 29.7787 1618.74 32.7348 1617.22 36.1937C1615.71 39.6526 1615.31 43.459 1616.08 47.1313C1616.85 50.8036 1618.76 54.177 1621.55 56.8247C1624.35 59.4725 1627.91 61.2757 1631.79 62.0063C1635.67 62.7369 1639.69 62.3621 1643.34 60.9292C1646.99 59.4964 1650.11 57.0699 1652.31 53.9567C1654.51 50.8434 1655.68 47.1833 1655.68 43.4391C1655.67 38.4216 1653.57 33.6114 1649.82 30.0632C1646.07 26.515 1640.99 24.5184 1635.69 24.5112Z"
            fill="white" />
        <path
            d="M1561.8 71.9908H1506.1C1503.06 71.9908 1500.14 70.8466 1497.99 68.8099C1495.84 66.7732 1494.63 64.0109 1494.63 61.1305C1494.63 58.2502 1495.84 55.4879 1497.99 53.4512C1500.14 51.4145 1503.06 50.2703 1506.1 50.2703H1561.8C1564.84 50.2703 1567.76 51.4145 1569.91 53.4512C1572.06 55.4879 1573.27 58.2502 1573.27 61.1305C1573.27 64.0109 1572.06 66.7732 1569.91 68.8099C1567.76 70.8466 1564.84 71.9908 1561.8 71.9908Z"
            fill="white" />
        <path
            d="M1508.72 24.5111H1460.22C1457.18 24.5111 1454.26 23.3669 1452.11 21.3302C1449.96 19.2935 1448.75 16.5311 1448.75 13.6508C1448.75 10.7705 1449.96 8.00813 1452.11 5.97143C1454.26 3.93473 1457.18 2.79053 1460.22 2.79053H1508.72C1511.76 2.79053 1514.68 3.93473 1516.83 5.97143C1518.98 8.00813 1520.19 10.7705 1520.19 13.6508C1520.19 16.5311 1518.98 19.2935 1516.83 21.3302C1514.68 23.3669 1511.76 24.5111 1508.72 24.5111Z"
            fill="white" />
        <path
            d="M1310.8 71.9908H1277.38C1274.33 71.9908 1271.42 70.8466 1269.27 68.8099C1267.11 66.7732 1265.91 64.0109 1265.91 61.1305C1265.91 58.2502 1267.11 55.4879 1269.27 53.4512C1271.42 51.4145 1274.33 50.2703 1277.38 50.2703H1310.8C1313.84 50.2703 1316.76 51.4145 1318.91 53.4512C1321.06 55.4879 1322.27 58.2502 1322.27 61.1305C1322.27 64.0109 1321.06 66.7732 1318.91 68.8099C1316.76 70.8466 1313.84 71.9908 1310.8 71.9908Z"
            fill="white" />
        <path
            d="M1290.49 24.5111H1245.9C1242.86 24.5111 1239.94 23.3669 1237.79 21.3302C1235.64 19.2935 1234.43 16.5311 1234.43 13.6508C1234.43 10.7705 1235.64 8.00813 1237.79 5.97143C1239.94 3.93473 1242.86 2.79053 1245.9 2.79053H1290.49C1293.53 2.79053 1296.45 3.93473 1298.6 5.97143C1300.75 8.00813 1301.96 10.7705 1301.96 13.6508C1301.96 16.5311 1300.75 19.2935 1298.6 21.3302C1296.45 23.3669 1293.53 24.5111 1290.49 24.5111Z"
            fill="white" />
        <path
            d="M1110.92 65.1603H1071.6C1068.56 65.1603 1065.64 64.016 1063.49 61.9794C1061.34 59.9427 1060.13 57.1803 1060.13 54.3C1060.13 51.4196 1061.34 48.6573 1063.49 46.6206C1065.64 44.5839 1068.56 43.4397 1071.6 43.4397H1110.92C1113.96 43.4397 1116.88 44.5839 1119.03 46.6206C1121.18 48.6573 1122.39 51.4196 1122.39 54.3C1122.39 57.1803 1121.18 59.9427 1119.03 61.9794C1116.88 64.016 1113.96 65.1603 1110.92 65.1603Z"
            fill="white" />
        <path
            d="M938.562 68.2646H902.103C899.086 68.2299 896.204 67.0705 894.084 65.0378C891.963 63.005 890.773 60.2626 890.773 57.4051C890.773 54.5476 891.963 51.8053 894.084 49.7725C896.204 47.7397 899.086 46.5803 902.103 46.5457H938.562C941.58 46.5803 944.461 47.7397 946.582 49.7725C948.703 51.8053 949.892 54.5476 949.892 57.4051C949.892 60.2626 948.703 63.005 946.582 65.0378C944.461 67.0705 941.58 68.2299 938.562 68.2646Z"
            fill="white" />
        <path
            d="M909.071 24.5111H866.481C863.439 24.5111 860.522 23.3669 858.371 21.3302C856.22 19.2935 855.012 16.5311 855.012 13.6508C855.012 10.7705 856.22 8.00813 858.371 5.97143C860.522 3.93473 863.439 2.79053 866.481 2.79053H909.071C912.113 2.79053 915.03 3.93473 917.181 5.97143C919.332 8.00813 920.54 10.7705 920.54 13.6508C920.54 16.5311 919.332 19.2935 917.181 21.3302C915.03 23.3669 912.113 24.5111 909.071 24.5111Z"
            fill="white" />
        <path
            d="M750.476 98.6738H730.817C727.775 98.6738 724.858 97.5296 722.707 95.4929C720.556 93.4562 719.348 90.6939 719.348 87.8135C719.348 84.9332 720.556 82.1709 722.707 80.1342C724.858 78.0975 727.775 76.9533 730.817 76.9533H739.005V35.5238C739.005 34.0977 739.302 32.6854 739.878 31.3678C740.454 30.0502 741.299 28.8529 742.364 27.8445C743.429 26.836 744.694 26.036 746.085 25.4903C747.477 24.9445 748.968 24.6636 750.474 24.6636C751.98 24.6636 753.472 24.9445 754.863 25.4903C756.254 26.036 757.519 26.836 758.584 27.8445C759.649 28.8529 760.494 30.0502 761.07 31.3678C761.646 32.6854 761.943 34.0977 761.943 35.5238V87.8135C761.943 90.6936 760.735 93.4557 758.584 95.4923C756.434 97.529 753.517 98.6734 750.476 98.6738Z"
            fill="white" />
        <path
            d="M519.137 96.1873C517.631 96.1876 516.139 95.9068 514.748 95.3611C513.356 94.8154 512.092 94.0154 511.027 93.0069C509.962 91.9984 509.117 90.8011 508.541 89.4834C507.964 88.1656 507.668 86.7533 507.668 85.3271V68.571C507.668 65.6906 508.876 62.9283 511.027 60.8916C513.178 58.8549 516.095 57.7107 519.137 57.7107H606.299C609.34 57.7107 612.258 58.8549 614.409 60.8916C616.559 62.9283 617.768 65.6906 617.768 68.571C617.768 71.4513 616.559 74.2136 614.409 76.2503C612.258 78.287 609.34 79.4312 606.299 79.4312H530.606V85.3271C530.606 86.7533 530.31 88.1656 529.733 89.4834C529.157 90.8011 528.312 91.9984 527.247 93.0069C526.182 94.0154 524.918 94.8154 523.526 95.3611C522.135 95.9068 520.643 96.1876 519.137 96.1873Z"
            fill="white" />
        <path
            d="M612.196 24.5111H535.524C532.482 24.5111 529.565 23.3669 527.414 21.3302C525.263 19.2935 524.055 16.5311 524.055 13.6508C524.055 10.7705 525.263 8.00813 527.414 5.97143C529.565 3.93473 532.482 2.79053 535.524 2.79053H612.196C615.238 2.79053 618.155 3.93473 620.306 5.97143C622.457 8.00813 623.665 10.7705 623.665 13.6508C623.665 16.5311 622.457 19.2935 620.306 21.3302C618.155 23.3669 615.238 24.5111 612.196 24.5111Z"
            fill="white" />
        <path
            d="M455.57 49.0216H431.321C428.279 49.0216 425.362 47.8774 423.211 45.8407C421.06 43.804 419.852 41.0416 419.852 38.1613C419.852 35.281 421.06 32.5186 423.211 30.4819C425.362 28.4452 428.279 27.301 431.321 27.301H455.57C458.612 27.301 461.529 28.4452 463.68 30.4819C465.831 32.5186 467.039 35.281 467.039 38.1613C467.039 41.0416 465.831 43.804 463.68 45.8407C461.529 47.8774 458.612 49.0216 455.57 49.0216Z"
            fill="white" />
        <path
            d="M488.99 417.522H470.641C467.599 417.522 464.682 416.378 462.531 414.341C460.38 412.304 459.172 409.542 459.172 406.662V197.65C459.172 194.77 460.38 192.008 462.531 189.971C464.682 187.934 467.599 186.79 470.641 186.79C473.683 186.79 476.6 187.934 478.751 189.971C480.902 192.008 482.11 194.77 482.11 197.65V395.802H488.99C492.032 395.802 494.949 396.946 497.1 398.982C499.251 401.019 500.459 403.781 500.459 406.662C500.459 409.542 499.251 412.304 497.1 414.341C494.949 416.378 492.032 417.522 488.99 417.522Z"
            fill="white" />
        <path
            d="M462.78 630.495H378.239C376.733 630.495 375.242 630.214 373.85 629.669C372.459 629.123 371.194 628.323 370.129 627.314C369.064 626.306 368.219 625.109 367.643 623.791C367.067 622.473 366.77 621.061 366.77 619.635V561.926C366.752 560.489 367.035 559.062 367.603 557.73C368.171 556.397 369.013 555.184 370.08 554.161C371.146 553.139 372.417 552.327 373.817 551.773C375.218 551.219 376.721 550.934 378.239 550.934C379.756 550.934 381.259 551.219 382.66 551.773C384.06 552.327 385.331 553.139 386.397 554.161C387.464 555.184 388.306 556.397 388.874 557.73C389.442 559.062 389.725 560.489 389.707 561.926V608.776H462.78C464.297 608.758 465.804 609.026 467.211 609.564C468.619 610.102 469.9 610.899 470.979 611.91C472.059 612.92 472.916 614.123 473.502 615.449C474.087 616.775 474.388 618.198 474.388 619.635C474.388 621.073 474.087 622.496 473.502 623.822C472.916 625.148 472.059 626.351 470.979 627.361C469.9 628.371 468.619 629.168 467.211 629.706C465.804 630.244 464.297 630.512 462.78 630.495Z"
            fill="white" />
        <path
            d="M602.369 641.219H547.319C545.801 641.236 544.295 640.968 542.888 640.43C541.48 639.892 540.199 639.095 539.12 638.085C538.04 637.075 537.182 635.872 536.597 634.546C536.012 633.22 535.711 631.797 535.711 630.359C535.711 628.922 536.012 627.499 536.597 626.173C537.182 624.847 538.04 623.644 539.12 622.634C540.199 621.623 541.48 620.826 542.888 620.288C544.295 619.75 545.801 619.482 547.319 619.5H590.9V609.709C590.9 606.828 592.108 604.066 594.259 602.029C596.41 599.993 599.327 598.848 602.369 598.848C605.411 598.848 608.328 599.993 610.479 602.029C612.63 604.066 613.838 606.828 613.838 609.709V630.354C613.839 631.78 613.542 633.193 612.966 634.511C612.39 635.829 611.546 637.027 610.48 638.036C609.415 639.045 608.151 639.846 606.759 640.392C605.367 640.938 603.875 641.219 602.369 641.219Z"
            fill="white" />
        <path
            d="M522.022 535.541C498.349 535.541 479.094 517.31 479.094 494.891C479.094 472.473 498.347 454.253 522.022 454.253C545.697 454.253 564.951 472.484 564.951 494.891C564.951 517.299 545.694 535.541 522.022 535.541ZM522.022 475.973C511.001 475.973 502.032 484.455 502.032 494.893C502.03 498.637 503.2 502.298 505.396 505.412C507.591 508.527 510.713 510.954 514.365 512.388C518.018 513.823 522.038 514.199 525.916 513.47C529.794 512.74 533.357 510.938 536.154 508.291C538.951 505.644 540.856 502.271 541.628 498.599C542.4 494.927 542.005 491.12 540.492 487.661C538.979 484.201 536.417 481.245 533.129 479.164C529.842 477.084 525.976 475.973 522.022 475.973Z"
            fill="white" />
        <path
            d="M704.603 475.978H657.421C655.903 475.996 654.397 475.728 652.989 475.19C651.582 474.652 650.301 473.855 649.221 472.845C648.141 471.835 647.284 470.632 646.699 469.305C646.114 467.979 645.813 466.556 645.812 465.119C645.812 463.682 646.114 462.259 646.699 460.932C647.284 459.606 648.141 458.403 649.221 457.393C650.301 456.383 651.582 455.586 652.989 455.048C654.397 454.51 655.903 454.242 657.421 454.259H693.129V424.955C693.129 422.074 694.338 419.312 696.489 417.275C698.639 415.238 701.557 414.094 704.598 414.094C707.64 414.094 710.557 415.238 712.708 417.275C714.859 419.312 716.067 422.074 716.067 424.955V465.124C716.066 468.003 714.858 470.763 712.708 472.798C710.558 474.834 707.643 475.977 704.603 475.978Z"
            fill="white" />
        <path
            d="M356.614 482.97C334.523 482.97 316.551 465.95 316.551 445.028C316.551 424.106 334.523 407.099 356.614 407.099C378.706 407.099 396.67 424.117 396.67 445.028C396.67 465.939 378.704 482.97 356.614 482.97ZM356.614 428.814C353.227 428.814 349.915 429.766 347.098 431.548C344.282 433.33 342.087 435.864 340.79 438.827C339.494 441.791 339.155 445.052 339.817 448.199C340.478 451.345 342.11 454.235 344.505 456.503C346.901 458.771 349.953 460.315 353.276 460.94C356.599 461.565 360.043 461.244 363.172 460.015C366.302 458.787 368.976 456.707 370.858 454.04C372.739 451.372 373.743 448.236 373.742 445.028C373.737 440.729 371.93 436.607 368.719 433.567C365.508 430.527 361.155 428.818 356.614 428.814Z"
            fill="white" />
        <path
            d="M352.679 310.654C331.323 310.654 313.949 294.202 313.949 273.984C313.949 253.766 331.323 237.306 352.679 237.306C374.035 237.306 391.408 253.758 391.408 273.984C391.408 294.21 374.035 310.654 352.679 310.654ZM352.679 259.027C349.556 259.026 346.503 259.903 343.906 261.546C341.308 263.189 339.284 265.524 338.088 268.256C336.893 270.989 336.58 273.995 337.188 276.896C337.797 279.797 339.301 282.462 341.509 284.553C343.717 286.645 346.531 288.07 349.594 288.647C352.657 289.225 355.833 288.929 358.718 287.798C361.604 286.666 364.071 284.75 365.807 282.291C367.543 279.833 368.469 276.942 368.47 273.984C368.466 270.019 366.801 266.218 363.841 263.413C360.881 260.609 356.867 259.032 352.679 259.027Z"
            fill="white" />
        <path
            d="M332.364 386.724C329.322 386.724 326.405 385.58 324.254 383.543C322.103 381.507 320.895 378.744 320.895 375.864V337.277C320.895 334.396 322.103 331.634 324.254 329.597C326.405 327.561 329.322 326.417 332.364 326.417H369.715C372.756 326.417 375.674 327.561 377.824 329.597C379.975 331.634 381.184 334.396 381.184 337.277C381.184 340.157 379.975 342.919 377.824 344.956C375.674 346.993 372.756 348.137 369.715 348.137H343.831V375.864C343.831 377.29 343.535 378.702 342.958 380.02C342.382 381.337 341.538 382.535 340.473 383.543C339.408 384.552 338.144 385.352 336.752 385.897C335.361 386.443 333.87 386.724 332.364 386.724Z"
            fill="white" />
        <path
            d="M195.394 626.151C193.888 626.151 192.397 625.87 191.005 625.324C189.614 624.779 188.35 623.979 187.285 622.97C186.22 621.962 185.375 620.764 184.799 619.447C184.223 618.129 183.926 616.717 183.927 615.291V548.894C183.908 547.457 184.191 546.03 184.759 544.697C185.327 543.365 186.169 542.152 187.236 541.129C188.303 540.107 189.573 539.295 190.974 538.741C192.374 538.187 193.877 537.902 195.395 537.902C196.913 537.902 198.415 538.187 199.816 538.741C201.216 539.295 202.487 540.107 203.554 541.129C204.62 542.152 205.462 543.365 206.03 544.697C206.598 546.03 206.881 547.457 206.863 548.894V615.291C206.863 616.717 206.567 618.129 205.99 619.447C205.414 620.765 204.569 621.962 203.504 622.971C202.439 623.979 201.175 624.779 199.783 625.325C198.392 625.871 196.9 626.151 195.394 626.151Z"
            fill="white" />
        <path
            d="M234.718 236.428H190.157C187.115 236.428 184.198 235.284 182.047 233.247C179.896 231.21 178.688 228.448 178.688 225.568C178.688 222.687 179.896 219.925 182.047 217.888C184.198 215.852 187.115 214.708 190.157 214.708H234.718C237.759 214.708 240.677 215.852 242.827 217.888C244.978 219.925 246.187 222.687 246.187 225.568C246.187 228.448 244.978 231.21 242.827 233.247C240.677 235.284 237.759 236.428 234.718 236.428Z"
            fill="white" />
        <path
            d="M245.858 73.2295H165.25C162.208 73.2295 159.291 72.0853 157.14 70.0486C154.99 68.0119 153.781 65.2496 153.781 62.3692V21.4071C153.781 18.5268 154.99 15.7645 157.14 13.7278C159.291 11.6911 162.208 10.5469 165.25 10.5469C168.292 10.5469 171.209 11.6911 173.36 13.7278C175.511 15.7645 176.719 18.5268 176.719 21.4071V51.509H245.858C248.899 51.509 251.817 52.6532 253.968 54.6899C256.118 56.7266 257.327 59.4889 257.327 62.3692C257.327 65.2496 256.118 68.0119 253.968 70.0486C251.817 72.0853 248.899 73.2295 245.858 73.2295Z"
            fill="white" />
        <path
            d="M70.2256 24.2055H-17.5935C-19.0997 24.2057 -20.5912 23.925 -21.9828 23.3793C-23.3743 22.8336 -24.6388 22.0336 -25.7038 21.0251C-26.7688 20.0166 -27.6136 18.8193 -28.1899 17.5016C-28.7662 16.1838 -29.0627 14.7715 -29.0625 13.3453C-29.0625 11.9191 -28.7658 10.507 -28.1895 9.18944C-27.6131 7.8719 -26.7682 6.67478 -25.7032 5.66644C-24.6382 4.6581 -23.3738 3.85829 -21.9824 3.31268C-20.5909 2.76708 -19.0996 2.48636 -17.5935 2.48657H70.2256C73.2671 2.48657 76.184 3.63056 78.3348 5.66691C80.4856 7.70326 81.6941 10.4652 81.6946 13.3453C81.6946 16.2256 80.4862 18.9879 78.3354 21.0246C76.1845 23.0613 73.2673 24.2055 70.2256 24.2055Z"
            fill="white" />
        <path
            d="M967.65 637.605H921.711C918.669 637.605 915.752 636.46 913.601 634.424C911.451 632.387 910.242 629.625 910.242 626.744C910.242 623.864 911.451 621.102 913.601 619.065C915.752 617.028 918.669 615.884 921.711 615.884H967.65C970.692 615.884 973.609 617.028 975.76 619.065C977.911 621.102 979.119 623.864 979.119 626.744C979.119 629.625 977.911 632.387 975.76 634.424C973.609 636.46 970.692 637.605 967.65 637.605Z"
            fill="white" />
        <path
            d="M1189.81 643.806H1103.32C1100.27 643.806 1097.36 642.662 1095.21 640.626C1093.06 638.59 1091.85 635.828 1091.85 632.948V607.511C1091.83 606.074 1092.11 604.648 1092.68 603.315C1093.25 601.982 1094.09 600.769 1095.16 599.747C1096.22 598.724 1097.5 597.912 1098.9 597.358C1100.3 596.804 1101.8 596.519 1103.32 596.519C1104.83 596.519 1106.34 596.804 1107.74 597.358C1109.14 597.912 1110.41 598.724 1111.48 599.747C1112.54 600.769 1113.38 601.982 1113.95 603.315C1114.52 604.648 1114.8 606.074 1114.78 607.511V622.087H1189.82C1191.34 622.07 1192.85 622.338 1194.26 622.876C1195.66 623.414 1196.94 624.211 1198.02 625.221C1199.1 626.231 1199.96 627.434 1200.55 628.761C1201.13 630.087 1201.43 631.51 1201.43 632.947C1201.43 634.384 1201.13 635.807 1200.55 637.133C1199.96 638.46 1199.1 639.663 1198.02 640.673C1196.94 641.683 1195.66 642.48 1194.26 643.018C1192.85 643.556 1191.34 643.824 1189.82 643.806H1189.81Z"
            fill="white" />
        <path
            d="M1197.02 599.747C1193.98 599.747 1191.06 598.603 1188.91 596.567C1186.76 594.53 1185.55 591.768 1185.55 588.887V556.002C1185.55 553.122 1186.76 550.359 1188.91 548.323C1191.06 546.286 1193.98 545.142 1197.02 545.142C1200.06 545.142 1202.98 546.286 1205.13 548.323C1207.28 550.359 1208.49 553.122 1208.49 556.002V588.887C1208.49 591.768 1207.28 594.53 1205.13 596.567C1202.98 598.603 1200.06 599.747 1197.02 599.747Z"
            fill="white" />
    </g>
</svg>