<svg width="1600" height="687" viewBox="0 0 1600 687" fill="none" xmlns="http://www.w3.org/2000/svg">
    <g clip-path="url(#clip0_805_17265)">
        <g opacity="0.03">
            <path
                d="M1325.01 -72.1687C1325.75 -69.9577 1326.25 -67.9924 1326.74 -65.7813C1327.24 -63.5703 1327.24 -61.6049 1326.99 -59.3939C1326.74 -57.1829 1326 -55.2175 1325.01 -52.7608C1324.02 -50.5498 1322.29 -48.3388 1319.82 -46.1277C1318.83 -45.1451 1317.59 -43.9167 1315.86 -42.197C1314.13 -40.4773 1312.4 -38.7576 1310.67 -36.5466C1308.94 -34.5812 1307.7 -32.3702 1306.71 -30.1592C1305.72 -27.9482 1305.48 -25.7371 1306.22 -23.5261C1306.96 -21.3151 1308.44 -19.5954 1310.67 -18.8584C1312.89 -18.1214 1315.37 -18.1214 1317.59 -18.8584C1319.32 -19.3497 1320.81 -20.3324 1322.04 -21.3151C1323.03 -22.5434 1324.02 -23.5261 1324.76 -25.0001C1325.51 -26.2285 1326 -27.7025 1326.25 -28.9309C1326.5 -30.1592 1326.99 -31.3875 1327.24 -32.1245L1349.74 -24.7545C1349 -17.8757 1346.28 -11.734 1341.83 -6.57491C1337.13 -1.41584 1331.19 2.26922 1324.02 4.72591C1320.07 5.95426 1316.11 6.69124 1311.66 6.69124C1307.45 6.69124 1303.25 6.19994 1299.29 4.72591C1295.34 3.2519 1291.63 0.795174 1288.41 -2.39853C1285.2 -5.83791 1282.72 -10.26 1280.99 -15.9104C1279.51 -20.8238 1279.02 -25.4915 1279.51 -29.9135C1280 -34.3356 1282.23 -39.0033 1285.69 -43.4254C1287.42 -45.6364 1289.4 -47.6018 1291.38 -49.5671C1293.36 -51.2868 1295.09 -53.2521 1296.82 -54.9718C1298.55 -56.6915 1299.79 -58.4112 1300.53 -59.8852C1301.52 -61.6049 1301.52 -63.0789 1301.02 -64.7986L1325.01 -72.1687ZM1312.15 -111.23L1320.07 -86.4176L1296.33 -79.0475L1288.41 -103.86L1312.15 -111.23Z"
                fill="white" />
            <path
                d="M1068.07 31.2583L1091.57 40.1024L1083.16 62.2127L1059.66 53.3686L1068.07 31.2583ZM1105.41 44.7701C1107.39 45.5071 1109.37 46.2441 1111.35 47.2268C1113.33 48.2095 1114.81 49.4379 1116.29 50.6662C1117.78 52.1402 1119.02 53.8599 1120 56.0709C1120.99 58.282 1121.74 60.7387 1122.23 63.9324C1122.48 65.1607 1122.48 66.8804 1122.72 69.3371C1122.97 71.5481 1123.22 74.0048 1123.96 76.4615C1124.46 78.9182 1125.44 81.1292 1126.43 83.0946C1127.67 85.06 1129.15 86.534 1131.13 87.271C1133.36 88.008 1135.34 88.008 1137.32 86.7797C1139.29 85.5513 1140.78 83.8316 1141.52 81.6206C1142.26 79.9009 1142.51 78.4269 1142.26 76.9529C1142.01 75.4788 1141.77 74.0048 1141.02 72.7765C1140.53 71.5481 1139.79 70.3198 1139.05 69.3371C1138.3 68.3544 1137.56 67.3718 1137.32 66.6348L1156.11 54.1056C1161.06 58.7733 1164.02 64.4237 1165.26 70.8111C1166.5 77.4442 1165.75 84.0773 1163.28 90.956C1161.8 94.6411 1160.07 98.0804 1157.59 101.274C1155.12 104.468 1152.15 107.416 1148.69 109.381C1145.23 111.592 1141.27 112.821 1136.82 113.312C1132.37 113.803 1127.42 113.066 1122.23 110.855C1117.53 109.136 1113.82 106.679 1110.61 103.731C1107.39 100.537 1105.17 96.3608 1103.93 91.2017C1103.19 88.4993 1102.94 86.0427 1102.69 83.3403C1102.45 80.6379 1102.2 78.4269 1101.95 76.2159C1101.7 74.0048 1101.21 72.0395 1100.47 70.3198C1099.73 68.6001 1098.74 67.6174 1097.25 67.1261L1105.41 44.7701Z"
                fill="white" />
            <path
                d="M61.082 163.92L68.0063 123.63L106.337 130.263L99.4129 170.553L61.082 163.92ZM71.4685 100.291C71.963 96.8519 72.7049 93.4125 73.6941 90.2188C74.6833 87.0251 75.9198 83.8314 77.8982 81.129C79.6292 78.4266 82.1022 75.7243 85.317 73.5133C88.5319 71.3022 92.4886 69.3369 97.1872 67.8628C99.1656 67.1258 101.886 66.3888 105.595 65.4062C109.305 64.4235 113.014 62.9495 116.724 61.2298C120.433 59.5101 123.895 57.5447 126.863 55.088C129.83 52.6313 131.561 49.6833 132.303 46.2439C133.045 42.5589 132.056 39.3652 129.336 36.4171C126.863 33.7148 123.401 31.9951 119.444 31.258C116.476 30.7667 113.756 30.7667 111.53 31.7494C109.305 32.4864 107.079 33.7147 105.348 34.9431C103.617 36.4171 101.886 37.6455 100.402 39.3652C98.9183 40.8392 97.6818 42.0675 96.4454 43.0502L70.232 16.7636C76.1671 7.42811 84.3278 1.04069 94.467 -3.1357C104.606 -7.06641 115.734 -8.04908 127.605 -6.08373C133.787 -5.10105 139.969 -2.89 146.152 -0.187632C152.334 2.7604 157.527 6.69111 161.979 11.3588C166.43 16.2722 169.645 22.1683 171.871 29.047C173.849 35.9258 174.096 44.0329 172.612 53.1227C171.129 60.9841 168.656 67.8628 164.452 73.7589C160.495 79.655 154.313 84.5684 146.152 88.0078C142.195 89.7274 137.991 91.2015 134.034 92.4298C129.83 93.6582 126.121 94.8865 122.659 96.1149C119.197 97.3432 116.229 98.8172 113.756 100.291C111.283 102.011 110.047 103.976 109.552 106.679L71.4685 100.291Z"
                fill="white" />
            <path
                d="M1233.76 93.1673L1233.02 73.7594L1251.56 73.0224L1252.31 92.4303L1233.76 93.1673ZM1232.27 62.4586C1232.27 60.7389 1232.27 59.2649 1232.27 57.5452C1232.27 55.8255 1232.77 54.3515 1233.26 52.8775C1233.76 51.4035 1234.75 49.9294 1235.98 48.4554C1237.22 46.9814 1238.95 45.7531 1240.93 44.5247C1241.67 44.0334 1242.91 43.2964 1244.64 42.5594C1246.12 41.8224 1247.85 40.594 1249.34 39.6113C1250.82 38.383 1252.31 37.1546 1253.29 35.6806C1254.53 34.2066 1255.03 32.7326 1254.78 31.0129C1254.78 29.2932 1254.04 27.8192 1252.55 26.8365C1251.07 25.8538 1249.34 25.3625 1247.61 25.3625C1246.12 25.3625 1244.89 25.8538 1243.9 26.3451C1242.91 26.8365 1241.92 27.5735 1241.18 28.5562C1240.44 29.2932 1239.94 30.2759 1239.45 31.0129C1238.95 31.7499 1238.46 32.4869 1237.96 33.2239L1223.12 23.6428C1225.1 18.7294 1228.07 14.7987 1232.52 12.0963C1236.97 9.1483 1241.92 7.67426 1247.61 7.42859C1250.57 7.42859 1253.79 7.67428 1256.76 8.41129C1259.97 9.1483 1262.69 10.3766 1265.41 12.342C1267.89 14.0617 1270.11 16.5184 1271.84 19.4664C1273.57 22.4145 1274.32 26.0995 1274.56 30.5216C1274.81 34.2066 1274.07 37.8916 1272.83 40.8397C1271.59 44.0334 1269.12 46.7358 1265.66 49.4381C1263.93 50.6665 1262.2 51.8948 1260.47 52.6318C1258.74 53.6145 1257 54.5972 1255.52 55.3342C1254.04 56.3169 1252.8 57.2995 1251.81 58.2822C1250.82 59.2649 1250.33 60.4933 1250.57 61.7216L1232.27 62.4586Z"
                fill="white" />
            <path
                d="M977.067 -14.9275L992.4 -13.9448L991.411 0.549696L976.078 -0.432968L977.067 -14.9275ZM1001.3 -13.4535C1002.54 -13.4535 1004.02 -13.2078 1005.26 -12.9621C1006.5 -12.7165 1007.73 -12.4708 1008.97 -11.7338C1010.2 -11.2424 1011.19 -10.2598 1012.18 -9.27709C1013.17 -8.29441 1014.16 -6.82036 1014.9 -5.10068C1015.15 -4.36367 1015.65 -3.381 1016.14 -2.15265C1016.63 -0.924299 1017.38 0.549696 1018.12 1.77804C1018.86 3.00639 1019.85 4.23476 1020.84 5.21744C1021.83 6.20012 1023.06 6.69145 1024.3 6.93712C1025.78 6.93712 1027.02 6.44577 1027.76 5.46309C1028.75 4.48041 1029.25 3.00641 1029.25 1.5324C1029.25 0.304049 1029.25 -0.678621 1028.75 -1.41563C1028.26 -2.15264 1027.76 -2.88967 1027.27 -3.62668C1026.77 -4.36369 1026.03 -4.85502 1025.54 -5.34636C1024.8 -5.8377 1024.3 -6.32904 1024.05 -6.57471L1032.96 -17.3842C1036.67 -15.4188 1039.39 -12.7164 1041.36 -9.0314C1043.34 -5.34636 1044.08 -1.41565 1043.84 3.25208C1043.59 5.70877 1043.1 7.91978 1042.35 10.3765C1041.61 12.8332 1040.13 14.7985 1038.64 16.7639C1036.91 18.7293 1034.93 19.9576 1032.46 21.186C1029.99 22.1686 1027.02 22.66 1023.31 22.4143C1020.34 22.1686 1017.62 21.4316 1015.15 20.2033C1012.68 18.9749 1010.7 16.7639 1008.97 13.8159C1008.23 12.3419 1007.48 10.8678 1006.74 9.39382C1006.25 7.9198 1005.51 6.44579 1005.01 5.21744C1004.52 3.98909 1003.78 3.00641 1003.03 2.02373C1002.29 1.28672 1001.55 0.79538 1000.56 0.79538L1001.3 -13.4535Z"
                fill="white" />
            <path
                d="M187.696 120.191L193.631 160.481L155.3 166.131L149.365 125.841L187.696 120.191ZM197.835 183.819C198.33 187.259 198.577 190.698 198.824 194.138C199.072 197.577 198.577 200.771 197.835 204.21C196.846 207.404 195.362 210.597 193.137 213.791C190.911 216.985 187.696 219.933 183.739 222.881C182.008 224.109 179.783 225.829 176.568 228.04C173.353 230.251 170.385 232.708 167.418 235.41C164.45 238.112 161.73 241.306 159.752 244.5C157.773 247.694 157.031 251.133 157.526 254.572C158.021 258.257 159.999 261.205 163.214 262.925C166.429 264.645 170.138 265.382 174.095 264.645C177.062 264.153 179.535 263.171 181.514 261.697C183.492 260.223 185.223 258.503 186.46 256.783C187.696 254.818 188.933 253.098 189.675 251.133C190.416 249.168 191.406 247.694 192.147 246.465L225.285 263.171C222.565 273.734 216.877 282.579 208.469 289.457C200.061 296.336 189.922 300.758 178.052 302.478C171.869 303.461 165.192 303.461 158.515 302.478C151.838 301.741 145.656 299.53 139.721 296.336C134.033 293.142 128.84 288.72 124.883 282.579C120.679 276.683 117.959 269.067 116.475 259.977C115.238 252.116 115.733 244.745 117.711 237.867C119.69 230.988 123.894 224.601 130.571 218.459C133.786 215.511 137.248 212.808 140.71 210.352C144.172 207.895 147.387 205.684 150.354 203.473C153.322 201.262 155.548 198.805 157.526 196.594C159.257 194.383 159.999 191.926 159.504 189.224L197.835 183.819Z"
                fill="white" />
            <path
                d="M273.756 299.776L306.399 320.412L286.616 351.121L253.973 330.484L273.756 299.776ZM325.689 331.958C328.409 333.678 331.129 335.643 333.602 337.609C336.075 339.574 338.301 341.785 340.032 344.487C341.763 347.19 343.247 350.138 343.988 353.823C344.978 357.262 345.225 361.439 344.73 366.352C344.483 368.317 344.236 371.02 343.988 374.705C343.494 378.144 343.494 382.075 343.494 385.76C343.741 389.691 344.236 393.376 345.225 396.815C346.214 400.255 348.192 402.957 350.913 404.677C353.88 406.642 357.095 406.888 360.557 405.659C363.772 404.431 366.492 402.22 368.471 399.026C369.955 396.569 370.944 394.358 370.944 391.902C371.191 389.691 370.944 387.48 370.449 385.269C369.955 383.058 369.213 381.338 368.471 379.618C367.729 377.899 366.987 376.424 366.492 374.95L399.135 361.93C405.071 370.528 407.791 379.864 407.544 390.182C407.296 400.5 404.081 410.327 398.146 419.908C394.931 424.821 390.975 429.489 386.276 433.666C381.577 437.842 376.137 441.036 370.449 443.247C364.514 445.458 358.332 446.195 351.407 445.458C344.483 444.721 337.311 442.018 329.893 437.351C323.463 433.42 318.517 428.506 314.56 422.856C310.851 417.206 308.872 410.081 308.625 401.729C308.378 397.552 308.625 393.376 309.12 389.445C309.614 385.514 309.862 381.829 310.109 378.144C310.356 374.705 310.109 371.511 309.614 368.809C309.12 366.106 307.636 364.141 305.658 362.913L325.689 331.958Z"
                fill="white" />
            <path
                d="M25.2236 -48.8302L22.7506 -22.2978L-2.47353 -24.7545L-0.000576019 -51.2869L25.2236 -48.8302ZM21.7615 -6.82067C21.5142 -4.60965 21.2669 -2.39859 20.7723 -0.187565C20.2777 2.02346 19.5358 3.98882 18.5466 5.95418C17.5574 7.91953 16.0737 9.63921 14.0953 11.3589C12.1169 13.0786 9.64396 14.5526 6.67641 15.781C5.43993 16.2723 3.70886 17.0093 1.2359 17.992C-0.989761 18.9747 -3.46272 19.9573 -5.93568 21.1857C-8.40864 22.414 -10.387 23.888 -12.1181 25.8534C-13.8491 27.5731 -14.8383 29.5385 -15.0856 31.7495C-15.3329 34.2062 -14.591 36.4172 -12.6127 37.8912C-10.8816 39.6109 -8.65594 40.5936 -5.93568 40.8393C-3.95731 41.0849 -2.22625 40.8393 -0.74247 40.1022C0.741302 39.3652 1.97778 38.6282 3.21426 37.6455C4.45074 36.6629 5.43993 35.6802 6.18182 34.4518C6.92371 33.4692 7.66558 32.4865 8.40747 31.7495L26.7074 47.4723C23.2452 53.8597 18.2993 58.5275 11.8696 61.7212C5.43992 64.9149 -1.73165 65.8976 -9.64512 65.1605C-13.8491 64.6692 -17.8059 63.6865 -22.0099 62.2125C-26.2139 60.7385 -29.6761 58.2818 -32.8909 55.3338C-36.1058 52.3857 -38.5787 48.7007 -40.3098 44.2786C-42.0409 39.8566 -42.5355 34.6975 -42.0409 28.5558C-41.5463 23.3967 -40.0625 18.729 -37.8369 14.5526C-35.6112 10.3762 -31.6545 6.93682 -26.4612 4.23446C-23.9883 2.76044 -21.268 1.77778 -18.7951 0.795097C-16.0748 -0.18758 -13.8492 -1.17025 -11.6235 -2.15293C-9.39783 -3.13561 -7.41946 -4.11829 -5.93568 -5.34665C-4.4519 -6.57499 -3.71002 -8.04902 -3.46272 -9.7687L21.7615 -6.82067Z"
                fill="white" />
            <path
                d="M1147.95 -1.90722L1156.6 -27.9482L1181.33 -19.8411L1172.67 6.19989L1147.95 -1.90722ZM1161.05 -43.1797C1161.79 -45.3907 1162.54 -47.6018 1163.52 -49.5671C1164.51 -51.7782 1165.75 -53.4978 1167.23 -55.2175C1168.72 -56.9372 1170.7 -58.4113 1172.92 -59.6396C1175.15 -60.868 1178.12 -61.8506 1181.33 -62.3419C1182.81 -62.5876 1184.79 -62.8333 1187.27 -63.3246C1189.74 -63.5703 1192.46 -64.3073 1195.18 -65.0443C1197.9 -65.7813 1200.37 -66.764 1202.6 -68.238C1204.82 -69.4664 1206.31 -71.4317 1207.05 -73.6428C1207.79 -76.0995 1207.54 -78.3105 1206.06 -80.2758C1204.58 -82.2412 1202.6 -83.7152 1200.12 -84.6979C1198.15 -85.4349 1196.42 -85.4349 1194.68 -85.1892C1192.95 -84.9436 1191.47 -84.4522 1190.23 -83.7152C1188.75 -82.9782 1187.76 -82.2412 1186.52 -81.2585C1185.53 -80.2758 1184.55 -79.7845 1183.56 -79.0475L1168.72 -98.9468C1173.66 -104.597 1179.6 -108.037 1186.77 -109.756C1193.94 -111.476 1201.36 -110.985 1209.03 -108.528C1212.98 -107.3 1216.94 -105.334 1220.65 -102.632C1224.36 -100.175 1227.57 -96.9814 1230.05 -93.2963C1232.52 -89.6113 1234.25 -85.4349 1234.99 -80.5215C1235.74 -75.6081 1234.99 -70.4491 1233.02 -64.3073C1231.28 -59.1482 1228.81 -54.9719 1225.6 -51.2868C1222.38 -47.6018 1217.68 -45.1451 1212 -43.4254C1209.03 -42.6884 1206.31 -41.9514 1203.34 -41.7057C1200.62 -41.46 1197.9 -40.9687 1195.43 -40.4774C1192.95 -39.986 1190.73 -39.249 1189 -38.512C1187.27 -37.775 1186.03 -36.301 1185.53 -34.8269L1161.05 -43.1797Z"
                fill="white" />
            <path
                d="M1147.45 -70.449L1137.81 -53.0065L1121.24 -62.0963L1130.88 -79.5388L1147.45 -70.449ZM1132.37 -42.6884C1131.62 -41.2143 1130.64 -39.7403 1129.65 -38.512C1128.66 -37.038 1127.67 -36.0553 1126.18 -35.0726C1124.95 -34.09 1123.22 -33.3529 1121.49 -32.6159C1119.75 -32.1246 1117.53 -31.8789 1115.06 -31.8789C1114.07 -31.8789 1112.58 -31.8789 1110.85 -32.1246C1108.87 -32.1246 1107.14 -32.1246 1105.16 -31.8789C1103.19 -31.6332 1101.21 -31.3876 1099.48 -30.6506C1097.75 -29.9136 1096.51 -28.9309 1095.52 -27.4569C1094.53 -25.7372 1094.53 -24.2631 1095.27 -22.5435C1096.01 -20.8238 1097.25 -19.5954 1098.98 -18.6127C1100.22 -17.8757 1101.45 -17.6301 1102.69 -17.6301C1103.93 -17.6301 1104.92 -17.8757 1106.15 -18.1214C1107.14 -18.3671 1108.13 -18.8584 1109.12 -19.3497C1110.11 -19.8411 1110.85 -20.0868 1111.59 -20.5781L1119.51 -4.36392C1115.3 -1.17021 1110.36 0.795158 1105.16 0.795158C1099.72 1.04082 1094.53 -0.433205 1089.58 -3.13557C1086.86 -4.60959 1084.39 -6.57492 1081.92 -8.78594C1079.69 -10.997 1077.71 -13.6994 1076.48 -16.6474C1075.24 -19.5954 1074.5 -22.7891 1074.75 -26.2285C1074.99 -29.6679 1075.98 -33.5986 1078.21 -37.5293C1080.19 -40.9687 1082.41 -43.6711 1085.38 -45.8821C1088.1 -48.0931 1091.81 -49.3215 1096.26 -49.5671C1098.49 -49.8128 1100.47 -49.8128 1102.69 -49.5671C1104.67 -49.3215 1106.65 -49.3214 1108.63 -49.3214C1110.36 -49.3214 1112.09 -49.5671 1113.32 -49.8128C1114.81 -50.0585 1115.8 -51.0411 1116.29 -52.0238L1132.37 -42.6884Z"
                fill="white" />
            <path
                d="M1201.61 301.495L1222.88 266.61L1256.26 286.509L1234.99 321.394L1201.61 301.495ZM1234.5 245.973C1236.23 243.025 1238.21 240.077 1240.19 237.375C1242.17 234.673 1244.64 232.216 1247.36 230.251C1250.08 228.285 1253.29 226.811 1257 225.829C1260.71 224.846 1265.16 224.355 1270.11 224.846C1272.09 224.846 1275.06 225.092 1279.01 225.583C1282.72 225.829 1286.68 226.074 1290.88 225.829C1295.09 225.583 1298.8 224.846 1302.51 223.618C1306.22 222.389 1308.94 220.424 1310.67 217.23C1312.65 214.036 1312.89 210.597 1311.41 207.158C1309.92 203.718 1307.45 201.016 1304.24 198.805C1301.76 197.331 1299.04 196.348 1296.57 196.348C1294.1 196.348 1291.87 196.594 1289.65 197.085C1287.42 197.577 1285.44 198.559 1283.46 199.296C1281.73 200.279 1280 201.016 1278.52 201.507L1263.68 167.605C1272.58 161.217 1282.48 158.024 1293.6 157.778C1304.48 157.778 1315.12 160.726 1325.5 166.868C1330.94 170.062 1335.89 174.238 1340.59 179.151C1345.29 184.065 1348.75 189.469 1351.22 195.611C1353.7 201.753 1354.69 208.386 1353.94 215.51C1353.45 222.635 1350.73 230.251 1345.78 238.358C1341.58 245.236 1336.63 250.641 1330.7 254.818C1324.76 258.994 1317.34 261.205 1308.44 261.696C1303.99 261.942 1299.79 261.942 1295.33 261.451C1291.13 260.959 1287.17 260.714 1283.46 260.714C1279.75 260.714 1276.54 260.959 1273.57 261.451C1270.85 262.188 1268.63 263.662 1267.39 265.873L1234.5 245.973Z"
                fill="white" />
            <path
                d="M1499.36 380.109C1499.11 382.32 1498.86 384.531 1498.61 386.742C1498.37 388.953 1497.63 390.919 1496.64 392.884C1495.65 394.85 1494.16 396.569 1492.43 398.289C1490.7 400.009 1488.23 401.483 1485.26 402.711C1484.02 403.202 1482.29 403.939 1480.07 404.922C1477.84 405.905 1475.62 406.887 1473.39 408.361C1471.16 409.59 1469.19 411.309 1467.46 413.029C1465.72 414.749 1464.73 416.714 1464.73 418.925C1464.49 421.382 1465.48 423.347 1467.21 424.821C1468.94 426.295 1471.16 427.278 1473.64 427.278C1475.62 427.524 1477.35 427.032 1478.58 426.541C1480.07 425.804 1481.3 425.067 1482.29 424.084C1483.28 423.102 1484.27 422.119 1485.01 420.891C1485.76 419.908 1486.5 418.925 1487.24 418.188L1505.54 433.174C1502.32 439.316 1497.63 444.229 1491.44 447.423C1485.26 450.617 1478.34 451.845 1470.67 451.354C1466.71 451.108 1462.51 450.125 1458.55 448.897C1454.6 447.423 1450.89 445.458 1447.67 442.51C1444.46 439.807 1441.98 436.368 1440.25 431.946C1438.52 427.769 1437.78 422.61 1438.03 416.714C1438.27 411.555 1439.51 407.133 1441.74 402.957C1443.96 399.026 1447.42 395.341 1452.37 392.639C1454.84 391.165 1457.32 389.936 1459.79 388.953C1462.26 387.971 1464.73 386.988 1466.71 386.005C1468.94 385.023 1470.67 383.794 1472.15 382.812C1473.64 381.583 1474.38 380.109 1474.38 378.39L1499.36 380.109ZM1501.58 339.083L1499.85 365.123L1475.12 363.404L1476.85 337.363L1501.58 339.083Z"
                fill="white" />
            <path
                d="M1643.28 -51.5323C1643.04 -49.3213 1642.79 -47.1103 1642.29 -44.8993C1641.8 -42.6882 1641.06 -40.7228 1640.07 -39.0032C1639.08 -37.0378 1637.59 -35.3181 1635.62 -33.8441C1633.64 -32.1244 1631.17 -30.896 1628.2 -29.6677C1626.96 -29.1764 1625.23 -28.4394 1623 -27.7024C1620.78 -26.9654 1618.31 -25.737 1616.08 -24.5087C1613.85 -23.2803 1611.63 -21.8063 1609.9 -20.0866C1608.17 -18.3669 1607.18 -16.4016 1606.93 -14.1905C1606.68 -11.7338 1607.42 -9.76848 1609.16 -8.0488C1610.89 -6.32911 1613.11 -5.59206 1615.59 -5.10072C1617.56 -4.85506 1619.29 -5.10075 1620.53 -5.59209C1622.02 -6.08344 1623.25 -7.0661 1624.49 -7.80311C1625.72 -8.78579 1626.47 -9.76846 1627.46 -10.7511C1628.2 -11.7338 1628.94 -12.7165 1629.68 -13.2078L1647.49 2.51501C1644.02 8.65675 1639.08 13.0788 1632.9 16.0268C1626.47 18.9749 1619.54 19.9576 1611.88 19.2206C1607.92 18.7292 1603.72 17.7466 1599.76 16.2725C1595.8 14.5528 1592.34 12.3418 1589.12 9.63946C1586.16 6.69142 1583.68 3.25202 1582.2 -1.17004C1580.47 -5.59209 1579.97 -10.5055 1580.72 -16.4016C1581.21 -21.5606 1582.7 -25.9827 1584.92 -29.9134C1587.15 -33.8441 1590.86 -37.2835 1596.05 -39.7402C1598.52 -40.9685 1600.99 -42.1969 1603.72 -43.1795C1606.19 -44.1622 1608.66 -44.8992 1610.89 -45.8819C1613.11 -46.8646 1614.84 -47.8473 1616.33 -49.0756C1617.81 -50.304 1618.55 -51.5323 1618.8 -53.252L1643.28 -51.5323ZM1647.24 -92.3135L1644.52 -66.5182L1619.79 -69.2205L1622.51 -95.0159L1647.24 -92.3135Z"
                fill="white" />
            <path
                d="M1576.76 192.418L1560.44 159.498L1591.84 144.021L1608.16 176.941L1576.76 192.418ZM1550.3 140.827C1548.81 138.125 1547.58 135.177 1546.59 132.229C1545.6 129.281 1544.86 126.333 1544.61 123.385C1544.36 120.437 1544.86 117.243 1545.85 113.804C1546.84 110.364 1548.81 106.925 1551.53 103.24C1552.52 101.766 1554.25 99.5547 1556.23 96.8524C1558.21 94.15 1560.19 91.2019 1562.17 88.0082C1563.9 84.8145 1565.38 81.6208 1566.12 78.1814C1566.87 74.7421 1566.62 71.794 1565.38 69.0917C1563.9 65.898 1561.43 64.1783 1558.21 63.4413C1555 62.9499 1551.53 63.1956 1548.32 64.9153C1545.85 66.1436 1544.12 67.6176 1542.88 69.3373C1541.64 71.057 1540.65 73.0224 1540.16 74.9877C1539.66 76.9531 1539.17 78.9184 1538.92 80.6381C1538.67 82.3578 1538.43 84.0775 1538.18 85.3058L1505.29 80.1468C1504.8 70.32 1507.02 61.2302 1512.46 52.8775C1517.65 44.5247 1525.32 38.1373 1534.97 33.4696C1540.16 31.0129 1545.6 29.0475 1551.53 28.0648C1557.47 26.8365 1563.4 27.0822 1569.34 28.0648C1575.27 29.2932 1580.71 31.7499 1585.91 35.6806C1591.1 39.6113 1595.55 45.2617 1599.26 52.8775C1602.48 59.2649 1604.21 65.6523 1604.46 72.0397C1604.7 78.4271 1602.72 85.3059 1598.77 92.1846C1596.79 95.624 1594.56 98.8177 1592.34 101.766C1589.86 104.714 1587.89 107.662 1585.91 110.364C1583.93 113.067 1582.69 115.769 1581.7 118.226C1580.72 120.682 1580.96 122.893 1581.95 125.104L1550.3 140.827Z"
                fill="white" />
            <path
                d="M1321.3 423.593L1350.24 439.562L1335.15 466.831L1306.22 450.862L1321.3 423.593ZM1367.3 448.16C1369.77 449.388 1372.25 450.862 1374.47 452.582C1376.7 454.056 1378.68 456.021 1380.41 458.232C1382.14 460.443 1383.38 462.9 1384.36 465.848C1385.35 468.796 1385.85 472.236 1385.6 476.412C1385.6 478.132 1385.6 480.343 1385.35 483.536C1385.11 486.484 1385.35 489.678 1385.6 493.117C1385.85 496.311 1386.59 499.505 1387.83 502.453C1388.82 505.401 1390.79 507.366 1393.27 508.84C1395.99 510.314 1398.71 510.56 1401.43 509.086C1404.15 507.858 1406.37 505.892 1407.86 502.944C1409.09 500.733 1409.59 498.768 1409.59 496.803C1409.59 494.837 1409.34 492.872 1408.85 491.152C1408.35 489.432 1407.61 487.713 1406.87 486.239C1406.13 484.765 1405.38 483.536 1404.89 482.308L1431.85 469.288C1437.29 476.166 1440.25 484.028 1440.75 492.872C1441.24 501.716 1439.02 510.314 1434.32 518.667C1431.85 523.089 1428.63 527.266 1424.92 531.196C1421.21 535.127 1416.76 538.075 1411.81 540.286C1406.87 542.497 1401.68 543.48 1395.74 543.234C1389.8 542.988 1383.62 541.023 1376.95 537.584C1371.26 534.39 1366.81 530.705 1363.1 526.037C1359.63 521.369 1357.41 515.473 1356.91 508.349C1356.67 504.91 1356.42 501.225 1356.67 498.031C1356.91 494.591 1356.91 491.398 1356.91 488.45C1356.91 485.502 1356.67 482.799 1355.93 480.588C1355.43 478.377 1354.19 476.658 1352.22 475.675L1367.3 448.16Z"
                fill="white" />
            <path
                d="M1205.07 105.942L1207.3 130.263L1184.3 132.474L1182.07 108.153L1205.07 105.942ZM1209.03 144.266C1209.28 146.231 1209.28 148.442 1209.28 150.408C1209.28 152.373 1209.03 154.339 1208.29 156.304C1207.55 158.269 1206.56 159.989 1205.32 161.954C1203.84 163.674 1201.86 165.394 1199.38 167.113C1198.4 167.85 1196.91 168.833 1194.93 169.816C1192.96 171.044 1190.98 172.272 1189.25 173.992C1187.27 175.466 1185.78 177.186 1184.3 179.151C1183.06 181.117 1182.32 183.082 1182.57 185.047C1182.82 187.258 1183.81 188.978 1185.78 190.206C1187.76 191.435 1189.74 191.926 1192.21 191.68C1193.94 191.435 1195.43 190.943 1196.66 190.206C1197.9 189.469 1198.89 188.487 1199.88 187.258C1200.62 186.276 1201.36 185.047 1201.86 184.065C1202.35 183.082 1202.85 182.099 1203.59 181.362L1222.88 192.417C1220.9 198.559 1217.19 203.718 1212 207.649C1206.8 211.58 1200.62 213.791 1193.45 214.528C1189.74 214.773 1185.78 214.773 1181.83 214.036C1177.87 213.299 1174.16 211.825 1170.95 209.86C1167.48 207.895 1164.76 204.947 1162.54 201.261C1160.31 197.576 1158.83 192.909 1158.33 187.504C1157.84 182.836 1158.33 178.414 1159.82 174.238C1161.3 170.061 1164.02 166.376 1168.23 163.183C1170.2 161.463 1172.43 159.989 1174.66 158.761C1176.88 157.532 1178.86 156.304 1180.59 154.83C1182.32 153.602 1183.81 152.373 1185.04 150.899C1186.28 149.671 1186.77 148.197 1186.53 146.477L1209.03 144.266Z"
                fill="white" />
            <path
                d="M1417.5 222.389C1417.5 218.95 1417.5 215.51 1417.75 212.071C1417.99 208.631 1418.74 205.438 1419.97 202.244C1421.21 199.05 1423.19 196.102 1425.91 193.4C1428.63 190.452 1432.09 187.995 1436.54 185.539C1438.27 184.556 1440.99 183.082 1444.45 181.362C1447.92 179.642 1451.13 177.677 1454.59 175.22C1458.06 172.764 1460.78 170.061 1463.25 167.113C1465.72 164.165 1466.96 160.972 1466.96 157.532C1466.96 153.601 1465.23 150.653 1462.26 148.442C1459.29 146.231 1455.58 145.249 1451.63 145.249C1448.66 145.249 1445.94 145.986 1443.96 147.214C1441.73 148.442 1440 149.916 1438.52 151.636C1437.03 153.356 1435.55 155.075 1434.56 156.795C1433.57 158.515 1432.58 159.989 1431.59 161.217L1400.93 140.335C1405.13 130.263 1411.81 122.156 1420.96 116.26C1430.11 110.364 1440.74 107.416 1452.86 107.17C1459.29 107.17 1465.72 107.907 1472.15 109.627C1478.58 111.346 1484.52 114.049 1489.96 117.979C1495.4 121.91 1499.6 127.069 1503.06 133.457C1506.52 139.844 1508.26 147.705 1508.26 157.041C1508.5 164.902 1507.02 172.272 1504.3 178.905C1501.58 185.539 1496.39 191.435 1488.97 196.348C1485.26 198.805 1481.55 201.016 1477.84 202.981C1474.13 204.946 1470.42 206.666 1467.2 208.631C1463.99 210.597 1461.27 212.562 1459.29 214.528C1457.31 216.493 1456.32 218.95 1456.32 221.652L1417.5 222.389ZM1419.23 286.754L1418.49 245.973L1457.31 245.236L1458.06 286.017L1419.23 286.754Z"
                fill="white" />
            <path
                d="M1493.67 530.213L1513.7 508.349L1534.47 527.265L1514.44 549.13L1493.67 530.213ZM1525.07 495.328C1526.81 493.363 1528.54 491.643 1530.52 489.923C1532.49 488.204 1534.47 486.975 1536.7 485.993C1538.92 485.01 1541.4 484.273 1544.36 484.273C1547.08 484.027 1550.3 484.519 1554.01 485.256C1555.49 485.501 1557.47 486.238 1560.19 486.975C1562.91 487.712 1565.63 488.449 1568.6 488.695C1571.57 489.186 1574.53 489.186 1577.25 488.695C1579.97 488.449 1582.2 487.221 1583.93 485.256C1585.91 483.29 1586.4 480.834 1585.91 478.131C1585.41 475.429 1584.18 473.218 1581.95 471.253C1580.22 469.779 1578.74 468.796 1577.01 468.304C1575.28 467.813 1573.54 467.813 1571.81 467.813C1570.08 467.813 1568.6 468.304 1567.11 468.55C1565.63 469.041 1564.39 469.287 1563.41 469.287L1557.72 443.001C1565.14 439.561 1572.56 438.824 1580.47 440.298C1588.38 441.772 1595.31 445.457 1601.98 451.353C1605.45 454.547 1608.41 457.986 1610.89 462.163C1613.61 466.339 1615.34 470.761 1616.08 475.429C1616.82 480.097 1616.57 485.01 1615.09 490.169C1613.61 495.328 1610.64 500.242 1605.94 505.155C1601.98 509.331 1597.53 512.525 1592.83 514.736C1588.14 516.947 1582.45 517.438 1575.77 516.456C1572.56 515.964 1569.59 515.227 1566.62 514.49C1563.65 513.508 1560.93 512.771 1558.21 512.279C1555.49 511.788 1553.27 511.297 1551.04 511.542C1548.82 511.542 1547.33 512.279 1545.85 513.753L1525.07 495.328Z"
                fill="white" />
            <path
                d="M1284.7 364.141L1308.2 349.646L1321.8 371.757L1298.3 386.251L1284.7 364.141ZM1321.55 340.802C1323.53 339.574 1325.51 338.346 1327.73 337.363C1329.71 336.38 1331.94 335.643 1334.16 335.398C1336.39 335.152 1338.86 335.152 1341.33 335.643C1343.81 336.135 1346.53 337.363 1349.49 339.083C1350.73 339.82 1352.46 340.802 1354.69 342.276C1356.91 343.75 1359.14 344.979 1361.86 345.961C1364.33 347.19 1367.05 347.927 1369.53 348.172C1372 348.664 1374.47 348.172 1376.45 346.944C1378.68 345.716 1379.91 343.75 1380.16 341.294C1380.41 338.837 1379.91 336.38 1378.43 334.169C1377.44 332.45 1376.2 331.221 1374.72 330.484C1373.24 329.747 1371.75 329.01 1370.27 328.765C1368.78 328.519 1367.3 328.273 1365.82 328.273C1364.33 328.273 1363.34 328.273 1362.11 328.028L1363.84 303.215C1371.26 302.232 1378.18 303.215 1384.61 306.654C1391.04 310.094 1396.48 315.007 1400.69 321.886C1402.91 325.571 1404.64 329.502 1405.88 333.924C1407.11 338.346 1407.61 342.522 1407.11 346.944C1406.62 351.366 1405.14 355.543 1402.66 359.719C1400.19 363.895 1396.23 367.58 1390.79 370.774C1386.09 373.476 1381.4 375.196 1376.7 375.933C1372 376.67 1366.81 375.687 1361.12 373.231C1358.4 372.002 1355.92 370.528 1353.45 369.054C1350.98 367.58 1348.75 366.106 1346.53 364.878C1344.3 363.65 1342.32 362.913 1340.34 362.421C1338.37 361.93 1336.64 362.176 1335.15 363.158L1321.55 340.802Z"
                fill="white" />
            <path
                d="M1316.6 70.5653L1344.3 53.6141L1360.62 79.6551L1332.92 96.6063L1316.6 70.5653ZM1360.13 43.0503C1362.6 41.5763 1364.82 40.348 1367.3 39.1196C1369.77 37.8913 1372.24 37.1543 1374.96 36.6629C1377.68 36.1716 1380.4 36.4172 1383.37 36.9086C1386.34 37.6456 1389.55 38.874 1393.02 40.8393C1394.5 41.5763 1396.48 42.8047 1398.95 44.5244C1401.42 46.244 1404.39 47.7181 1407.36 48.9464C1410.33 50.1748 1413.29 51.1574 1416.51 51.6488C1419.48 52.1401 1422.2 51.6488 1424.67 50.1748C1427.39 48.7007 1428.63 46.244 1428.87 43.296C1429.12 40.348 1428.38 37.3999 1426.9 34.6976C1425.66 32.7322 1424.18 31.2582 1422.44 30.2755C1420.71 29.2928 1418.98 28.5558 1417.25 28.3101C1415.52 27.8188 1413.79 27.8188 1412.06 27.8188C1410.33 27.8188 1409.09 27.8188 1407.85 27.5731L1409.83 -1.66155C1418.49 -2.8899 1426.65 -1.66153 1434.56 2.26918C1442.23 6.1999 1448.66 12.0959 1453.6 20.203C1456.32 24.3794 1458.3 29.2928 1459.79 34.2062C1461.27 39.3653 1461.76 44.5243 1461.27 49.6834C1460.78 54.8425 1459.04 60.0015 1455.83 64.9149C1452.86 69.8283 1448.16 74.2504 1441.73 78.1811C1436.29 81.6205 1430.85 83.5858 1425.16 84.3228C1419.48 85.0598 1413.29 84.0772 1406.86 81.1291C1403.65 79.6551 1400.68 78.1811 1397.71 76.2157C1394.75 74.496 1392.03 72.7763 1389.55 71.3023C1386.83 69.8283 1384.61 68.8456 1382.38 68.3543C1380.16 67.863 1378.18 68.1086 1376.45 69.0913L1360.13 43.0503Z"
                fill="white" />
            <path
                d="M1584.18 262.679C1586.65 264.89 1588.87 267.347 1590.85 269.803C1592.83 272.26 1594.56 274.962 1595.8 277.911C1597.04 280.859 1597.78 284.052 1597.78 287.737C1598.02 291.422 1597.28 295.599 1595.8 300.021C1595.3 301.986 1594.32 304.443 1593.33 307.882C1592.09 311.322 1591.35 315.007 1590.61 318.692C1589.86 322.622 1589.62 326.307 1590.11 329.747C1590.36 333.432 1591.84 336.38 1594.07 338.591C1596.54 341.048 1599.76 342.03 1603.22 341.539C1606.68 341.048 1609.9 339.328 1612.62 336.626C1614.59 334.66 1615.83 332.449 1616.57 330.238C1617.31 328.027 1617.56 325.816 1617.56 323.605C1617.56 321.394 1617.31 319.429 1616.82 317.463C1616.32 315.498 1616.08 314.024 1615.83 312.55L1650.45 306.408C1654.41 315.989 1655.15 325.816 1652.92 335.889C1650.45 345.961 1645.26 355.051 1637.34 362.912C1633.14 367.089 1628.19 370.774 1622.75 373.967C1617.07 377.161 1611.38 379.126 1605.2 380.109C1599.01 381.092 1592.58 380.355 1586.15 378.144C1579.48 375.933 1573.05 372.002 1566.87 365.615C1561.43 360.21 1557.47 354.559 1555 348.172C1552.52 341.785 1552.03 334.415 1553.76 326.062C1554.5 321.885 1555.49 317.955 1556.97 314.27C1558.21 310.585 1559.45 306.9 1560.44 303.46C1561.42 300.021 1561.92 297.073 1561.92 294.37C1561.92 291.668 1561.18 289.457 1559.2 287.737L1584.18 262.679ZM1539.91 220.424L1567.61 247.447L1541.89 273.489L1514.19 246.465L1539.91 220.424Z"
                fill="white" />
            <path
                d="M268.066 124.367L289.334 89.4818L322.719 109.381L301.451 144.266L268.066 124.367ZM300.709 68.8455C302.441 65.8975 304.419 62.9495 306.397 60.2471C308.376 57.5447 310.849 55.0881 313.569 53.1227C316.289 51.1573 319.504 49.6833 323.213 48.7006C326.923 47.718 331.374 47.2266 336.32 47.718C338.299 47.718 341.266 47.9636 345.223 48.455C348.932 48.7006 352.889 48.9463 357.093 48.7006C361.297 48.455 365.006 47.718 368.716 46.4896C372.425 45.2613 375.146 43.2959 376.877 40.1022C378.855 36.9085 379.102 33.4691 377.619 30.0297C376.135 26.5904 373.662 23.888 370.447 21.677C367.974 20.203 365.254 19.2203 362.781 19.2203C360.308 19.2203 358.082 19.466 355.857 19.9573C353.631 20.4486 351.652 21.4313 349.674 22.1683C347.943 23.151 346.212 23.888 344.728 24.3794L329.89 -9.52307C338.793 -15.9105 348.685 -19.1042 359.813 -19.3499C370.694 -19.3499 381.328 -16.4018 391.714 -10.2601C397.155 -7.06638 402.101 -2.88999 406.799 2.0234C411.498 6.93679 414.96 12.3415 417.433 18.4833C419.906 24.625 420.895 31.2581 420.153 38.3825C419.659 45.5069 416.939 53.1227 411.993 61.2298C407.789 68.1086 402.843 73.5133 396.908 77.6897C390.973 81.8661 383.554 84.0771 374.651 84.5684C370.2 84.8141 365.996 84.8141 361.544 84.3227C357.34 83.8314 353.384 83.5857 349.674 83.5857C345.965 83.5857 342.75 83.8314 339.782 84.3227C337.062 85.0598 334.836 86.5338 333.6 88.7448L300.709 68.8455Z"
                fill="white" />
            <path
                d="M255.952 -60.1306L258.177 -35.8093L235.179 -33.5983L232.953 -57.9196L255.952 -60.1306ZM259.908 -21.8061C260.156 -19.8408 260.156 -17.6297 260.156 -15.6644C260.156 -13.699 259.909 -11.7337 259.167 -9.76832C258.425 -7.80296 257.436 -6.08327 256.199 -4.11791C254.715 -2.39822 252.737 -0.67852 250.264 1.04117C249.275 1.77818 247.791 2.76083 245.813 3.74351C243.834 4.97186 241.856 6.2002 240.125 7.91989C238.146 9.39391 236.663 11.1136 235.179 13.079C233.942 15.0443 233.201 17.0097 233.448 18.975C233.695 21.1861 234.684 22.9058 236.663 24.1341C238.641 25.3625 240.619 25.8538 243.092 25.6081C244.823 25.3625 246.307 24.8711 247.544 24.1341C248.78 23.3971 249.769 22.4144 250.759 21.1861C251.5 20.2034 252.242 18.975 252.737 17.9924C253.232 17.0097 253.726 16.027 254.468 15.29L273.757 26.3451C271.779 32.4869 268.069 37.646 262.876 41.5767C257.683 45.5074 251.5 47.7184 244.329 48.4554C240.619 48.7011 236.663 48.7011 232.706 47.9641C228.749 47.2271 225.04 45.753 221.825 43.7877C218.363 41.8223 215.643 38.8743 213.417 35.1892C211.191 31.5042 209.707 26.8365 209.213 21.4317C208.718 16.764 209.213 12.342 210.697 8.16557C212.18 3.98919 214.901 0.304142 219.105 -2.88956C221.083 -4.60925 223.309 -6.08327 225.534 -7.31163C227.76 -8.53997 229.738 -9.7683 231.469 -11.2423C233.201 -12.4707 234.684 -13.699 235.921 -15.173C237.157 -16.4014 237.652 -17.8754 237.405 -19.5951L259.908 -21.8061Z"
                fill="white" />
            <path
                d="M480.247 120.928C478.516 122.893 476.537 124.859 474.559 126.824C472.58 128.544 470.602 130.263 468.129 131.246C465.656 132.474 463.183 133.211 459.968 133.457C457.001 133.703 453.539 133.457 449.582 132.474C448.098 132.229 445.872 131.492 442.905 130.755C439.937 130.018 436.97 129.526 433.755 129.035C430.54 128.789 427.573 128.789 424.605 129.281C421.637 129.772 419.165 131 417.433 132.966C415.455 135.177 414.713 137.879 415.455 140.581C416.197 143.529 417.681 145.74 419.906 147.951C421.637 149.425 423.616 150.408 425.347 150.9C427.325 151.391 429.056 151.391 430.787 151.145C432.518 150.9 434.25 150.654 435.733 150.163C437.217 149.671 438.701 149.425 439.69 149.18L446.614 177.186C438.948 180.871 430.787 182.1 422.379 180.871C413.971 179.397 406.305 175.712 399.134 169.816C395.424 166.622 391.962 162.937 389.242 158.515C386.274 154.093 384.296 149.426 383.307 144.512C382.317 139.599 382.317 134.194 383.801 128.789C385.285 123.385 388.252 117.734 392.951 112.329C396.908 107.662 401.606 103.977 406.552 101.766C411.746 99.3089 417.681 98.5719 424.605 99.3089C428.067 99.8002 431.282 100.292 434.497 101.274C437.712 102.011 440.679 102.748 443.647 103.485C446.614 103.977 449.087 104.222 451.313 104.222C453.539 103.977 455.27 103.24 456.753 101.766L480.247 120.928ZM512.642 82.3577L491.87 106.433L468.871 86.7797L489.644 62.7041L512.642 82.3577Z"
                fill="white" />
            <path
                d="M488.163 -6.329C489.894 -6.08333 491.378 -5.83769 493.109 -5.59202C494.84 -5.34635 496.323 -4.85498 497.56 -3.8723C499.044 -3.13529 500.28 -1.90698 501.517 -0.678631C502.753 0.795386 503.742 2.5151 504.732 4.72613C505.226 5.7088 505.721 6.93713 506.215 8.65681C506.957 10.3765 507.699 12.0962 508.688 13.8159C509.677 15.5356 510.667 17.0096 512.15 18.4836C513.387 19.7119 514.871 20.449 516.602 20.6946C518.333 20.9403 520.064 20.2033 521.053 18.9749C522.29 17.7466 523.031 16.0269 523.031 14.0615C523.279 12.5875 523.031 11.3592 522.537 10.3765C522.042 9.39382 521.548 8.41115 520.806 7.42847C520.064 6.69146 519.322 5.95447 518.58 5.21746C517.838 4.72612 517.096 3.98912 516.602 3.49778L528.225 -10.014C532.923 -7.55734 536.385 -3.87232 538.611 0.795401C540.837 5.46312 541.826 10.6222 541.331 16.2726C541.084 19.2206 540.342 22.1686 539.106 25.3623C537.869 28.3104 536.385 31.0127 534.16 33.2238C531.934 35.4348 529.214 37.4001 525.999 38.6285C522.784 39.8568 518.827 40.3482 514.376 39.8568C510.667 39.6112 507.205 38.3828 504.237 36.9088C501.269 35.1891 498.796 32.4867 496.571 28.8017C495.582 26.8363 494.592 25.1167 493.85 23.1513C493.109 21.186 492.367 19.4663 491.625 17.7466C490.883 16.0269 490.141 14.7986 489.152 13.8159C488.41 12.8332 487.173 12.0962 485.937 12.0962L488.163 -6.329ZM457.251 -8.78569L476.787 -7.06601L475.056 11.3592L455.52 9.63951L457.251 -8.78569Z"
                fill="white" />
            <path
                d="M92.2418 291.177L51.6852 298.056L45.0083 259.977L85.5648 253.098L92.2418 291.177ZM28.4394 301.495C25.7192 301.986 23.7408 303.46 22.0097 305.671C20.2787 308.128 19.0422 311.076 17.8057 314.516C16.5692 317.955 15.3327 321.886 14.0963 325.816C12.8598 329.993 11.376 333.923 9.64494 337.854C5.93549 345.961 1.23689 352.103 -4.69822 356.034C-10.6333 359.964 -17.5576 362.667 -25.4711 364.141C-34.621 365.615 -42.7818 365.369 -49.7061 363.404C-56.6304 361.438 -62.5655 357.999 -67.5114 353.577C-72.4573 349.155 -76.1668 343.75 -79.1343 337.854C-82.1019 331.712 -84.0802 325.571 -85.0694 319.429C-87.0478 307.637 -86.0586 296.827 -82.1019 286.509C-78.1451 276.437 -71.4681 268.33 -62.0709 262.434L-35.6102 288.475C-36.5994 289.703 -37.8359 290.931 -39.3197 292.405C-40.8034 293.879 -42.2872 295.353 -43.771 297.319C-45.2548 299.038 -46.2439 301.249 -46.9858 303.46C-47.7277 305.671 -47.975 308.374 -47.4804 311.322C-46.7385 315.253 -45.0075 318.446 -42.2872 321.149C-39.567 323.605 -36.3521 324.588 -32.3954 324.097C-28.9332 323.605 -25.9657 321.64 -23.4927 318.692C-21.0198 315.744 -19.0414 312.304 -17.3103 308.619C-15.5792 304.934 -14.0955 301.249 -13.1063 297.564C-12.1171 293.879 -11.1279 291.177 -10.6333 289.212C-9.14955 284.298 -7.17118 280.367 -4.94551 277.419C-2.71985 274.226 0.000404358 271.769 2.72066 270.049C5.44091 268.33 8.65575 266.856 11.8706 265.873C15.0854 264.89 18.5476 264.153 22.0097 263.662L28.4394 301.495Z"
                fill="white" />
            <path
                d="M1519.63 732.891L1507.27 699.971L1538.67 688.424L1551.04 721.344L1519.63 732.891ZM1499.6 681.3C1498.61 678.598 1497.62 675.65 1496.88 672.947C1496.14 669.999 1495.89 667.297 1495.89 664.349C1496.14 661.401 1496.88 658.453 1498.12 655.505C1499.35 652.557 1501.58 649.363 1504.55 646.169C1505.78 644.695 1507.52 642.976 1509.74 640.519C1511.97 638.062 1514.19 635.605 1516.17 632.657C1518.15 629.709 1519.88 626.761 1520.87 623.568C1522.11 620.374 1522.11 617.426 1521.12 614.724C1519.88 611.53 1517.9 609.564 1514.69 608.827C1511.47 607.845 1508.5 608.09 1505.29 609.319C1502.82 610.302 1500.84 611.53 1499.6 613.004C1498.12 614.478 1497.13 616.198 1496.39 618.163C1495.65 619.883 1495.15 621.848 1494.66 623.568C1494.41 625.287 1493.91 626.761 1493.42 627.99L1462.51 619.883C1463 610.547 1465.97 601.949 1471.91 594.579C1477.84 587.209 1485.51 581.804 1495.15 578.119C1500.34 576.153 1505.78 574.925 1511.47 574.679C1517.16 574.188 1522.85 574.679 1528.29 576.399C1533.73 578.119 1538.67 581.067 1543.37 585.243C1548.07 589.42 1551.53 595.316 1554.5 602.931C1556.97 609.319 1557.96 615.706 1557.47 621.848C1556.97 627.99 1554.75 634.131 1550.05 640.519C1547.82 643.713 1545.35 646.415 1542.88 649.117C1540.41 651.82 1537.93 654.276 1535.95 656.733C1533.98 659.19 1532.25 661.401 1531.26 663.857C1530.27 666.068 1530.02 668.28 1530.76 670.491L1499.6 681.3Z"
                fill="white" />
            <path
                d="M1423.19 624.796L1416.76 661.156L1382.14 655.259L1388.57 618.9L1423.19 624.796ZM1413.79 682.283C1413.3 685.477 1412.56 688.425 1411.81 691.373C1411.07 694.321 1409.84 697.023 1408.1 699.726C1406.37 702.182 1404.15 704.639 1401.43 706.604C1398.71 708.815 1395 710.535 1390.55 711.764C1388.81 712.255 1386.09 713.238 1382.88 713.975C1379.66 714.957 1376.2 716.186 1372.74 717.66C1369.28 719.134 1366.31 721.099 1363.59 723.31C1360.87 725.521 1359.39 728.223 1358.64 731.171C1358.15 734.611 1358.89 737.559 1361.12 740.016C1363.34 742.472 1366.31 743.946 1370.02 744.683C1372.74 745.175 1375.21 744.929 1377.19 744.438C1379.42 743.701 1381.15 742.718 1382.88 741.49C1384.61 740.261 1386.09 739.033 1387.33 737.559C1388.57 736.085 1389.8 735.102 1390.79 734.119L1414.53 757.704C1409.09 766.057 1401.67 771.953 1392.52 775.638C1383.37 779.323 1373.48 780.06 1362.6 778.34C1356.91 777.357 1351.47 775.638 1345.79 772.935C1340.34 770.233 1335.4 766.794 1331.44 762.372C1327.49 757.949 1324.52 752.79 1322.54 746.403C1320.56 740.261 1320.31 732.891 1321.8 724.538C1323.03 717.414 1325.51 711.272 1329.22 705.867C1332.93 700.463 1338.37 696.286 1345.79 692.847C1349.49 691.127 1353.2 689.899 1356.91 688.916C1360.62 687.934 1364.09 686.705 1367.3 685.723C1370.51 684.494 1373.24 683.266 1375.21 681.792C1377.44 680.318 1378.68 678.352 1379.17 676.141L1413.79 682.283Z"
                fill="white" />
            <path
                d="M1324.52 584.261C1323.53 583.278 1322.54 582.296 1321.55 581.067C1320.56 580.085 1319.82 578.856 1319.32 577.628C1318.83 576.399 1318.58 574.926 1318.33 573.451C1318.33 571.977 1318.58 570.012 1319.08 568.047C1319.32 567.31 1319.57 566.081 1320.06 564.607C1320.56 563.133 1320.81 561.659 1321.3 559.94C1321.55 558.22 1321.55 556.746 1321.55 555.026C1321.3 553.552 1320.81 552.078 1319.82 551.096C1318.58 550.113 1317.34 549.622 1315.86 549.867C1314.38 550.113 1313.14 550.85 1311.9 552.078C1311.16 553.061 1310.42 553.798 1310.17 554.781C1309.93 555.763 1309.68 556.746 1309.93 557.729C1309.93 558.711 1310.17 559.448 1310.42 560.431C1310.67 561.168 1310.67 561.905 1310.91 562.642L1296.08 565.344C1294.35 561.168 1293.85 556.992 1294.84 552.57C1295.83 548.148 1298.05 544.217 1301.52 540.777C1303.25 538.812 1305.47 537.338 1307.7 535.864C1310.17 534.39 1312.65 533.653 1315.37 533.162C1318.09 532.67 1320.81 532.916 1323.53 533.899C1326.25 534.881 1329.21 536.601 1331.93 539.058C1334.41 541.269 1336.14 543.725 1337.13 546.428C1338.36 549.13 1338.36 552.324 1337.87 556.009C1337.62 557.729 1337.13 559.448 1336.63 561.168C1336.14 562.888 1335.64 564.362 1335.15 565.836C1334.65 567.31 1334.65 568.538 1334.65 569.766C1334.65 570.995 1335.15 571.977 1335.89 572.714L1324.52 584.261ZM1343.8 602.44L1331.69 590.894L1342.57 579.593L1354.69 591.14L1343.8 602.44Z"
                fill="white" />
            <path
                d="M1258.74 491.889L1246.37 527.02L1212.99 515.228L1225.35 480.097L1258.74 491.889ZM1239.69 547.656C1238.7 550.604 1237.47 553.552 1236.23 556.5C1234.99 559.448 1233.26 561.905 1231.04 564.116C1229.06 566.327 1226.34 568.292 1223.12 570.012C1219.91 571.732 1216.2 572.714 1211.5 573.451C1209.52 573.697 1207.05 574.188 1203.59 574.434C1200.13 574.925 1196.66 575.417 1192.95 576.399C1189.25 577.382 1186.03 578.61 1182.82 580.576C1179.85 582.295 1177.62 584.752 1176.63 587.7C1175.4 590.894 1175.89 594.088 1177.87 596.79C1179.85 599.738 1182.57 601.703 1186.03 602.932C1188.5 603.914 1190.98 604.16 1193.2 603.669C1195.43 603.423 1197.41 602.686 1199.38 601.703C1201.36 600.721 1202.85 599.738 1204.33 598.51C1205.81 597.281 1207.05 596.299 1208.29 595.807L1227.82 623.322C1220.9 630.692 1212.74 635.36 1202.85 637.571C1192.95 639.536 1183.06 638.799 1172.68 635.114C1167.24 633.149 1162.04 630.447 1156.85 627.007C1151.9 623.568 1147.7 619.146 1144.24 614.232C1141.02 609.319 1138.8 603.423 1138.05 596.79C1137.31 590.157 1138.3 583.032 1141.02 574.925C1143.5 568.047 1146.96 562.151 1151.41 557.483C1155.86 552.815 1162.29 549.376 1170.2 547.41C1174.16 546.428 1178.12 545.691 1181.83 545.199C1185.78 544.708 1189.25 544.217 1192.71 543.725C1196.17 543.234 1198.89 542.251 1201.36 541.269C1203.84 540.286 1205.32 538.566 1206.06 536.11L1239.69 547.656Z"
                fill="white" />
            <path
                d="M1264.67 728.469L1262.45 704.148L1285.45 701.937L1287.67 726.258L1264.67 728.469ZM1260.72 690.145C1260.47 688.179 1260.47 685.968 1260.47 684.003C1260.47 682.038 1260.72 680.072 1261.46 678.107C1262.2 676.142 1263.19 674.422 1264.43 672.457C1265.91 670.737 1267.89 669.017 1270.36 667.298C1271.35 666.56 1272.83 665.578 1274.81 664.595C1276.79 663.367 1278.77 662.138 1280.5 660.419C1282.48 658.945 1283.96 657.225 1285.45 655.26C1286.68 653.294 1287.42 651.329 1287.18 649.364C1286.93 647.153 1285.94 645.433 1283.96 644.205C1281.98 642.976 1280 642.485 1277.53 642.731C1275.8 642.976 1274.32 643.468 1273.08 644.205C1271.84 644.942 1270.85 645.924 1269.87 647.153C1269.12 648.135 1268.38 649.364 1267.89 650.346C1267.39 651.329 1266.9 652.312 1266.16 653.049L1246.87 641.994C1248.85 635.852 1252.56 630.693 1257.75 626.762C1262.94 622.831 1269.12 620.62 1276.3 619.883C1280 619.638 1283.96 619.638 1287.92 620.375C1291.88 621.112 1295.58 622.586 1298.8 624.551C1302.26 626.516 1304.98 629.464 1307.21 633.149C1309.43 636.834 1310.92 641.502 1311.41 646.907C1311.91 651.575 1311.41 655.997 1309.93 660.173C1308.44 664.349 1305.72 668.035 1301.52 671.228C1299.54 672.948 1297.32 674.422 1295.09 675.65C1292.86 676.879 1290.89 678.107 1289.15 679.581C1287.42 680.809 1285.94 682.038 1284.7 683.512C1283.47 684.74 1282.97 686.214 1283.22 687.934L1260.72 690.145Z"
                fill="white" />
            <path
                d="M1202.85 453.319L1206.56 430.472L1228.32 433.911L1224.61 456.758L1202.85 453.319ZM1208.54 416.96C1208.78 414.994 1209.28 413.029 1209.77 411.309C1210.27 409.344 1211.01 407.624 1212 406.15C1212.99 404.431 1214.47 402.957 1216.2 401.728C1217.93 400.5 1220.16 399.271 1222.88 398.289C1224.12 397.797 1225.6 397.306 1227.58 396.815C1229.56 396.078 1231.78 395.341 1234.01 394.358C1236.23 393.375 1237.96 392.147 1239.69 390.673C1241.43 389.199 1242.42 387.479 1242.66 385.514C1242.91 383.303 1242.42 381.583 1240.93 380.109C1239.45 378.635 1237.47 377.653 1235.24 377.161C1233.51 376.916 1232.03 376.915 1230.79 377.407C1229.56 377.898 1228.32 378.39 1227.33 379.372C1226.34 380.109 1225.35 381.092 1224.61 381.829C1223.87 382.812 1223.13 383.549 1222.38 384.04L1207.3 369.3C1210.76 363.895 1215.21 360.21 1220.9 357.999C1226.59 355.788 1233.02 355.051 1239.69 356.279C1243.16 356.771 1246.87 357.999 1250.33 359.473C1253.79 361.193 1256.76 363.158 1259.48 365.86C1261.95 368.563 1263.93 372.002 1265.17 375.933C1266.4 379.864 1266.65 384.531 1265.66 389.69C1264.92 394.112 1263.44 398.043 1261.21 401.482C1258.98 404.922 1255.52 407.624 1250.82 409.835C1248.6 410.818 1246.12 411.801 1243.9 412.538C1241.67 413.275 1239.45 414.012 1237.47 414.749C1235.49 415.486 1233.76 416.223 1232.52 417.205C1231.29 418.188 1230.3 419.416 1230.05 420.89L1208.54 416.96Z"
                fill="white" />
            <path
                d="M1131.87 696.777C1129.9 696.532 1127.67 696.286 1125.69 696.04C1123.71 695.795 1121.73 695.058 1120 694.075C1118.27 693.092 1116.54 691.864 1115.06 690.144C1113.57 688.425 1112.09 686.214 1110.85 683.511C1110.36 682.283 1109.62 680.809 1108.88 678.598C1108.13 676.387 1106.9 674.422 1105.91 672.211C1104.67 670 1103.19 668.28 1101.7 666.56C1099.97 664.841 1098.24 664.103 1096.02 663.858C1093.79 663.612 1091.81 664.349 1090.33 666.069C1088.84 667.789 1088.1 669.754 1087.85 672.211C1087.61 673.93 1087.85 675.65 1088.6 676.878C1089.09 678.107 1089.83 679.335 1090.82 680.318C1091.81 681.3 1092.8 682.283 1093.79 683.02C1094.78 683.757 1095.52 684.494 1096.26 684.985L1081.92 701.937C1075.98 698.988 1071.78 694.566 1068.81 688.67C1065.85 682.774 1064.61 676.387 1065.35 669.263C1065.6 665.578 1066.59 661.647 1067.82 657.962C1069.31 654.277 1071.29 650.837 1074.01 647.889C1076.73 644.941 1079.94 642.73 1084.15 641.011C1088.1 639.291 1093.05 638.8 1098.49 639.291C1103.19 639.782 1107.64 641.011 1111.35 642.976C1115.06 644.941 1118.27 648.381 1120.99 653.048C1122.23 655.259 1123.47 657.716 1124.45 659.927C1125.44 662.384 1126.19 664.595 1127.17 666.56C1128.16 668.526 1129.15 670.245 1130.14 671.474C1131.13 672.702 1132.62 673.439 1134.1 673.685L1131.87 696.777ZM1170.7 699.48L1146.22 697.515L1148.2 674.422L1172.68 676.387L1170.7 699.48Z"
                fill="white" />
            <path
                d="M85.5632 534.881C87.2942 535.373 88.778 535.127 90.5091 534.39C92.2401 533.407 93.7239 532.179 95.455 530.705C97.1861 528.985 98.9171 527.265 100.896 525.3C102.627 523.335 104.852 521.369 107.078 519.65C111.529 515.965 115.981 513.999 120.679 513.508C125.131 513.017 130.076 513.508 134.775 514.982C140.463 516.702 144.914 519.158 148.376 522.352C151.838 525.546 154.064 529.231 155.548 533.162C157.032 537.092 157.526 541.269 157.526 545.445C157.526 549.621 156.784 553.798 155.548 557.729C153.322 565.099 149.613 570.995 144.172 575.417C138.979 580.084 132.797 582.541 125.872 583.278L118.454 560.922C119.443 560.431 120.432 560.185 121.668 559.94C122.905 559.694 124.141 559.203 125.625 558.465C126.862 557.728 128.098 556.991 129.335 555.763C130.571 554.78 131.313 553.306 131.808 551.341C132.549 548.884 132.549 546.673 131.808 544.462C131.066 542.251 129.335 540.777 127.109 540.04C124.883 539.303 122.658 539.549 120.432 540.532C118.206 541.514 115.981 542.743 114.002 544.462C112.024 546.182 110.045 547.902 108.314 549.621C106.583 551.341 105.347 552.815 104.358 553.552C102.132 555.763 99.9063 557.483 97.6807 558.711C95.455 559.694 93.2293 560.431 91.0037 560.677C88.778 560.922 86.7996 560.676 84.574 560.431C82.3483 559.939 80.3699 559.448 78.1443 558.711L85.5632 534.881ZM46.2431 522.352L71.22 530.213L63.8011 553.798L38.8242 545.691L46.2431 522.352Z"
                fill="white" />
            <path
                d="M207.728 402.219L212.18 434.894L181.268 439.07L176.816 406.396L207.728 402.219ZM214.158 453.81C214.405 456.021 215.642 457.741 217.373 458.969C219.351 460.443 221.577 461.672 224.297 462.654C227.017 463.637 230.232 464.865 233.447 465.848C236.662 466.831 239.877 468.305 243.092 469.779C249.521 472.972 254.467 476.903 257.435 481.816C260.402 486.73 262.381 492.38 263.37 498.768C264.359 506.138 263.865 512.771 262.133 518.176C260.155 523.58 257.435 528.248 253.725 532.179C250.016 535.864 245.565 538.812 240.619 541.023C235.673 543.234 230.48 544.708 225.534 545.199C215.889 546.428 206.987 545.445 199.073 542.006C190.912 538.566 184.73 532.916 180.031 525.3L201.793 504.909C202.782 505.646 203.772 506.875 204.761 508.103C205.75 509.331 206.987 510.56 208.47 511.788C209.954 513.017 211.685 513.754 213.416 514.491C215.395 515.228 217.373 515.473 219.846 514.982C223.061 514.491 225.781 513.262 228.007 511.051C230.232 508.84 230.974 506.383 230.727 503.19C230.232 500.487 228.996 498.031 226.77 496.065C224.544 494.1 221.824 492.135 218.857 490.661C215.889 489.187 212.922 487.958 209.954 486.976C206.986 485.993 204.761 485.256 203.277 484.765C199.32 483.29 196.353 481.816 193.88 479.851C191.407 477.886 189.428 475.675 188.192 473.464C186.708 471.253 185.719 468.55 185.224 466.094C184.483 463.391 183.988 460.689 183.741 457.987L214.158 453.81Z"
                fill="white" />
            <path
                d="M-68.5003 144.021L-46.4909 154.83L-56.8774 175.466L-78.8867 164.657L-68.5003 144.021ZM-33.8788 161.463C-32.3951 162.2 -30.9113 162.2 -29.1802 161.709C-27.4492 161.217 -25.7181 160.235 -23.987 159.006C-22.2559 157.778 -20.2776 156.304 -18.2992 154.83C-16.3208 153.356 -14.0952 151.882 -11.8695 150.654C-7.17088 147.951 -2.71954 146.723 1.48449 146.969C5.68852 147.214 10.1398 148.197 14.3439 150.408C19.2898 152.865 23.2465 155.813 25.7195 159.252C28.4397 162.691 29.9235 166.376 30.6654 170.307C31.4073 174.238 31.4073 178.169 30.6654 182.099C29.9235 186.03 28.687 189.715 26.956 193.154C23.7411 199.542 19.2898 204.455 13.8493 207.895C8.40878 211.334 2.22637 212.808 -4.45062 212.562L-7.91277 190.698C-6.92358 190.452 -5.93439 190.206 -4.69791 190.206C-3.46143 190.206 -2.22495 189.715 -0.988472 189.469C0.248009 188.978 1.48449 188.487 2.72097 187.504C3.95745 186.767 4.94662 185.539 5.68851 183.819C6.6777 181.608 7.17229 179.643 6.6777 177.432C6.18311 175.221 4.94663 173.747 2.96826 172.518C0.989891 171.535 -0.988472 171.29 -3.21414 172.027C-5.4398 172.518 -7.66546 173.501 -9.89112 174.729C-12.1168 175.958 -14.0952 177.186 -15.8262 178.66C-17.5573 180.134 -19.0411 181.117 -20.0303 181.854C-22.5032 183.573 -24.7289 184.802 -26.9546 185.539C-29.1802 186.276 -31.4059 186.521 -33.3842 186.276C-35.3626 186.276 -37.341 185.784 -39.3194 185.047C-41.2977 184.31 -43.0288 183.573 -45.0072 182.591L-33.8788 161.463Z"
                fill="white" />
            <path
                d="M252.491 152.619L261.888 173.501L242.104 182.345L232.707 161.463L252.491 152.619ZM266.587 185.539C267.081 187.013 268.318 187.75 269.801 188.487C271.285 188.978 273.016 189.469 275.242 189.715C277.22 189.961 279.446 189.961 281.919 190.206C284.392 190.206 286.618 190.452 289.09 190.943C294.036 191.68 297.993 193.646 300.961 196.348C303.928 199.05 306.401 202.49 308.132 206.421C310.358 211.088 311.1 215.51 311.1 219.687C310.853 223.617 309.863 227.302 308.132 230.496C306.401 233.69 303.928 236.638 301.208 238.849C298.24 241.306 295.273 243.271 292.058 244.499C285.876 247.202 279.693 248.184 273.758 247.447C267.576 246.71 262.383 244.254 257.931 240.077L268.565 222.389C269.307 222.635 270.296 223.372 271.038 223.863C272.027 224.6 273.016 225.091 274.253 225.583C275.489 226.074 276.726 226.32 278.209 226.565C279.693 226.565 280.93 226.32 282.661 225.828C284.639 224.846 286.123 223.617 287.359 221.652C288.349 219.932 288.349 217.967 287.607 216.002C286.865 214.282 285.381 212.808 283.403 212.071C281.424 211.088 279.446 210.597 276.973 210.106C274.747 209.614 272.522 209.369 270.296 209.369C268.07 209.369 266.587 209.123 265.35 209.123C262.63 208.877 260.157 208.386 258.179 207.649C256.2 206.912 254.469 205.683 252.985 204.455C251.502 203.227 250.512 201.753 249.523 200.033C248.534 198.313 247.792 196.594 246.803 194.874L266.587 185.539Z"
                fill="white" />
            <path
                d="M373.415 184.065L374.899 214.282L346.213 215.511L344.729 185.293L373.415 184.065ZM374.899 231.971C374.899 233.936 375.888 235.656 377.372 237.13C379.103 238.604 381.082 239.832 383.554 241.06C386.027 242.289 388.748 243.517 391.715 244.745C394.683 245.974 397.403 247.448 400.371 249.167C406.058 252.607 410.262 256.783 412.488 261.451C414.961 266.119 416.198 271.523 416.445 277.419C416.692 284.298 415.95 290.194 413.725 295.108C411.499 300.021 408.531 303.952 404.822 307.146C401.112 310.339 396.908 312.55 391.963 314.27C387.264 315.744 382.565 316.727 377.867 316.972C368.964 317.464 361.051 315.744 353.879 311.813C346.707 307.883 341.514 302.232 337.805 295.108L359.567 278.156C360.309 278.893 361.051 280.122 362.04 281.35C362.782 282.579 364.018 283.807 365.255 285.035C366.491 286.264 367.975 287.246 369.459 287.983C371.19 288.72 373.168 289.212 375.394 288.966C378.361 288.72 380.834 287.983 383.06 286.018C385.286 284.298 386.275 281.841 386.027 279.139C386.027 276.437 384.791 274.226 382.813 272.26C380.834 270.295 378.609 268.33 375.888 266.856C373.168 265.136 370.695 263.908 367.975 262.679C365.255 261.451 363.276 260.714 362.04 259.977C358.578 258.503 355.857 256.538 353.879 254.572C351.901 252.607 350.17 250.396 349.18 248.185C348.191 245.974 347.449 243.517 346.955 241.06C346.707 238.604 346.46 235.901 346.213 233.445L374.899 231.971Z"
                fill="white" />
            <path
                d="M-54.9025 461.426C-57.3754 460.443 -59.8484 460.443 -62.5687 461.672C-65.2889 462.9 -68.0092 464.62 -70.9767 466.831C-73.9443 469.042 -76.9118 471.744 -80.1267 474.446C-83.3415 477.394 -86.8037 479.851 -90.5131 482.308C-97.932 487.467 -105.351 489.924 -112.522 490.169C-119.694 490.415 -127.113 488.941 -134.532 485.993C-143.187 482.554 -149.864 478.131 -154.81 472.481C-159.509 467.076 -162.971 461.18 -164.702 454.793C-166.433 448.405 -166.928 442.018 -166.186 435.385C-165.444 428.752 -163.96 422.364 -161.487 416.714C-157.036 405.659 -150.359 396.815 -141.456 390.427C-132.553 384.04 -122.662 380.601 -111.781 380.355L-103.125 416.223C-104.609 416.714 -106.34 417.205 -108.318 417.451C-110.297 417.697 -112.522 418.434 -114.501 419.171C-116.726 419.908 -118.705 421.136 -120.683 422.856C-122.662 424.33 -124.145 426.541 -125.135 429.243C-126.618 432.928 -126.866 436.613 -125.876 440.298C-124.887 443.983 -122.662 446.44 -119.199 447.914C-115.985 449.142 -112.522 449.388 -108.813 448.16C-105.104 446.931 -101.641 445.212 -98.1793 443.001C-94.7171 440.79 -91.5023 438.333 -88.782 435.876C-86.0618 433.42 -83.8361 431.454 -82.105 430.226C-78.1483 427.032 -74.4389 424.575 -70.9767 423.101C-67.2673 421.627 -63.8051 420.89 -60.5903 420.89C-57.1282 420.89 -53.9133 421.382 -50.6985 422.119C-47.4836 423.101 -44.0215 424.33 -40.8066 425.558L-54.9025 461.426ZM4.94315 486.239L-33.1404 470.761L-18.55 435.139L19.5336 450.616L4.94315 486.239Z"
                fill="white" />
            <path
                d="M231.714 633.395L203.769 644.204L193.63 618.163L221.575 607.354L231.714 633.395ZM187.448 649.854C185.717 650.591 184.233 651.82 183.491 653.785C182.749 655.75 182.007 657.962 181.76 660.664C181.266 663.366 181.018 666.314 180.771 669.262C180.524 672.21 180.029 675.404 179.287 678.598C177.803 684.985 175.33 689.899 171.621 693.584C167.912 697.269 163.46 700.217 158.02 702.182C151.59 704.639 145.902 705.621 140.709 705.13C135.516 704.639 130.817 703.165 126.613 700.708C122.409 698.251 118.947 695.058 115.979 691.127C113.012 687.196 110.786 683.02 109.055 678.843C105.84 670.736 105.098 662.875 106.335 655.013C107.819 647.152 111.281 640.519 116.969 634.869L139.472 649.609C138.978 650.591 138.236 651.574 137.247 652.802C136.258 654.031 135.516 655.259 134.774 656.733C134.032 658.207 133.537 659.927 133.29 661.647C133.043 663.366 133.29 665.332 134.032 667.297C135.021 669.999 136.752 671.965 138.978 673.439C141.204 674.913 143.677 675.158 146.397 674.176C148.87 673.193 150.601 671.473 151.837 669.017C153.074 666.56 154.063 663.858 154.805 660.91C155.547 657.962 156.041 655.259 156.289 652.311C156.536 649.609 156.783 647.398 157.031 645.924C157.525 642.239 158.267 639.291 159.503 636.588C160.74 634.131 162.224 631.921 163.955 630.201C165.686 628.481 167.664 627.007 169.89 626.024C172.116 624.796 174.341 623.813 176.814 623.076L187.448 649.854Z"
                fill="white" />
            <path
                d="M201.792 359.964L167.665 378.144L150.354 345.961L184.481 327.782L201.792 359.964ZM147.386 388.216C145.161 389.445 143.677 391.41 142.935 393.867C142.193 396.569 141.699 399.517 141.699 402.957C141.699 406.396 141.699 410.327 141.946 414.257C142.193 418.188 141.946 422.364 141.699 426.541C140.957 434.894 138.484 441.772 134.28 447.177C130.076 452.582 124.635 457.004 117.958 460.443C110.292 464.62 102.873 466.831 95.9489 467.076C89.0246 467.322 82.8422 466.094 77.1544 463.637C71.4666 461.18 66.2734 457.495 61.822 452.828C57.3707 448.16 53.6613 443.246 50.941 438.087C45.5005 428.015 43.0275 417.942 43.7694 407.87C44.264 397.552 47.7262 388.462 54.4031 380.355L86.057 395.832C85.5624 397.061 84.8205 398.78 83.8314 400.254C82.8422 401.974 82.1003 403.694 81.3584 405.905C80.6165 407.87 80.3692 410.081 80.3692 412.538C80.3692 414.749 81.1111 417.205 82.3476 419.662C84.0787 423.102 86.5516 425.313 89.7665 426.787C92.9813 428.261 96.1962 428.261 99.411 426.541C102.379 425.067 104.357 422.61 105.841 419.171C107.077 415.731 108.066 412.292 108.314 408.361C108.808 404.431 108.808 400.746 108.808 397.061C108.561 393.375 108.561 390.673 108.561 388.708C108.561 384.04 109.056 379.864 110.292 376.424C111.529 372.985 113.012 370.037 114.991 367.58C116.969 365.123 119.195 362.912 121.915 361.193C124.635 359.473 127.355 357.753 130.323 356.034L147.386 388.216Z"
                fill="white" />
            <path
                d="M-76.4151 600.475C-73.4476 601.703 -70.2328 601.703 -67.2652 600.229C-64.0504 598.755 -60.8355 596.79 -57.1261 594.088C-53.6639 591.385 -49.9545 588.192 -45.9978 584.752C-42.2883 581.313 -38.0843 578.119 -33.6329 575.171C-24.483 569.029 -15.8276 566.081 -7.17227 565.836C1.48308 565.59 10.3857 567.31 19.2884 570.995C29.6748 575.171 37.8356 580.576 43.5234 587.209C49.2112 593.842 53.1679 600.966 55.1463 608.582C57.1247 616.198 57.8666 624.059 56.8774 632.166C55.8882 640.273 53.9098 647.644 51.1896 654.768C45.7491 668.034 37.5883 678.598 26.9546 686.459C16.3208 694.321 4.45062 698.252 -8.90335 698.497L-19.0425 655.014C-17.3114 654.522 -15.0858 654.031 -12.6128 653.54C-10.1398 653.048 -7.66685 652.557 -4.94661 651.329C-2.47365 650.346 -0.000686646 648.872 2.47227 646.907C4.69794 644.941 6.6763 642.484 7.91278 639.045C9.64384 634.623 10.1384 630.201 8.90196 625.779C7.66548 621.357 4.94522 618.409 0.741196 616.689C-3.21555 615.215 -7.41957 614.97 -11.6236 616.444C-16.0749 617.918 -20.279 619.883 -24.483 622.585C-28.687 625.288 -32.3965 628.236 -35.8586 631.184C-39.3207 634.132 -42.041 636.588 -44.0194 638.062C-48.718 641.993 -53.1693 644.696 -57.6207 646.415C-62.072 648.135 -66.276 648.872 -70.2327 649.118C-74.1895 649.118 -78.3935 648.626 -82.3503 647.398C-86.307 646.17 -90.2637 644.941 -94.2205 643.222L-76.4151 600.475ZM-148.378 570.012L-102.629 588.683L-120.434 631.675L-166.184 613.004L-148.378 570.012Z"
                fill="white" />
            <path
                d="M496.572 642.976L453.048 669.017L428.318 628.235L471.842 602.194L496.572 642.976ZM427.576 683.265C424.856 684.985 422.878 687.442 422.136 690.881C421.394 694.321 420.899 698.251 421.146 702.919C421.394 707.587 421.641 712.5 422.136 717.659C422.63 722.818 422.63 728.223 422.383 733.628C421.888 744.683 418.921 753.773 413.975 761.143C408.782 768.267 402.105 774.409 393.697 779.568C383.805 785.464 374.408 788.658 365.505 789.395C356.602 790.132 348.194 788.903 340.775 785.955C333.109 783.007 326.432 778.585 320.25 772.935C314.067 767.284 309.121 761.143 305.165 754.51C297.498 741.98 293.789 728.96 293.789 715.448C293.789 701.936 297.993 689.898 305.907 678.843L347.947 697.023C347.452 698.743 346.463 700.708 345.227 703.165C343.99 705.376 343.001 707.832 342.259 710.535C341.517 713.237 341.27 716.185 341.27 719.133C341.517 722.081 342.506 725.275 344.237 728.469C346.71 732.645 350.173 735.593 354.377 737.313C358.581 739.032 362.785 738.787 366.989 736.33C370.698 734.119 373.418 730.68 374.902 726.258C376.386 721.836 377.375 716.922 377.622 712.009C377.87 706.85 377.87 702.182 377.375 697.514C376.88 692.847 376.633 689.162 376.633 686.705C376.139 680.563 376.633 675.158 378.117 670.491C379.353 665.823 381.332 661.892 383.805 658.453C386.278 655.013 389.245 652.065 392.46 649.609C395.922 647.152 399.384 644.695 403.094 642.484L427.576 683.265Z"
                fill="white" />
            <path
                d="M258.176 573.206L276.723 582.541L267.821 599.984L249.273 590.648L258.176 573.206ZM287.604 588.437C288.841 588.928 290.077 589.174 291.561 588.683C293.045 588.191 294.529 587.454 296.012 586.472C297.496 585.489 299.227 584.261 300.958 583.032C302.689 581.804 304.42 580.576 306.399 579.347C310.356 577.136 314.312 576.154 317.774 576.154C321.484 576.399 325.193 577.382 328.656 579.102C332.86 581.313 336.074 583.769 338.3 586.717C340.526 589.665 342.01 592.859 342.504 596.053C342.999 599.246 342.999 602.686 342.504 606.125C341.762 609.565 340.773 612.513 339.289 615.461C336.569 620.865 332.86 625.042 328.161 627.99C323.462 630.938 318.269 632.166 312.581 631.921L309.861 613.25C310.603 613.004 311.592 613.004 312.581 612.758C313.57 612.758 314.807 612.513 315.796 612.021C317.033 611.776 318.022 611.039 319.011 610.547C320 609.81 320.989 608.828 321.484 607.354C322.473 605.634 322.72 603.669 322.473 601.949C322.226 599.984 320.989 598.755 319.258 597.773C317.774 597.035 315.796 596.79 314.065 597.281C312.087 597.772 310.356 598.51 308.377 599.492C306.646 600.475 304.915 601.703 303.184 602.686C301.7 603.914 300.464 604.651 299.475 605.388C297.496 606.862 295.271 607.845 293.539 608.582C291.561 609.073 289.83 609.319 288.099 609.319C286.368 609.319 284.637 608.828 283.153 608.336C281.422 607.599 279.938 607.108 278.207 606.125L287.604 588.437Z"
                fill="white" />
            <path
                d="M304.172 512.28L334.095 506.629L339.535 534.636L309.612 540.286L304.172 512.28ZM351.405 503.681C353.384 503.19 354.868 502.207 356.104 500.488C357.341 498.768 358.33 496.557 359.072 493.855C360.061 491.152 360.803 488.45 361.545 485.502C362.286 482.554 363.276 479.36 364.759 476.412C367.232 470.27 370.942 465.603 375.146 462.654C379.597 459.706 384.543 457.495 390.478 456.513C397.155 455.284 403.338 455.284 408.531 456.758C413.724 458.232 418.175 460.443 421.885 463.883C425.594 467.077 428.562 471.007 430.788 475.429C433.013 479.851 434.497 484.273 435.486 488.941C437.217 497.54 436.723 505.647 433.755 513.262C431.035 520.878 426.089 526.774 419.412 531.442L399.628 512.525C400.37 511.543 401.359 510.806 402.348 509.577C403.585 508.595 404.574 507.366 405.563 505.892C406.552 504.418 407.294 502.944 407.789 501.225C408.284 499.505 408.284 497.54 408.036 495.328C407.542 492.38 406.058 490.169 404.08 488.204C402.101 486.239 399.628 485.747 396.908 486.239C394.435 486.73 392.209 487.958 390.478 490.169C388.747 492.381 387.263 494.837 386.027 497.785C384.79 500.488 383.801 503.436 383.059 506.138C382.317 508.84 381.823 510.806 381.328 512.28C380.339 515.965 378.855 518.913 377.124 521.124C375.393 523.335 373.662 525.3 371.436 526.774C369.458 528.248 367.232 529.231 364.759 529.968C362.286 530.705 359.814 531.196 357.341 531.688L351.405 503.681Z"
                fill="white" />
            <path
                d="M282.412 446.686C281.918 445.949 280.928 445.458 279.939 445.458C278.95 445.458 277.714 445.458 276.477 445.703C275.241 445.949 273.757 446.195 272.273 446.44C270.789 446.686 269.305 446.932 267.574 447.177C264.36 447.423 261.639 446.932 259.166 445.703C256.941 444.475 254.715 442.755 252.984 440.544C250.758 437.842 249.522 435.385 249.027 432.683C248.533 430.226 248.533 427.769 249.027 425.313C249.522 423.102 250.758 420.891 251.995 418.925C253.479 416.96 254.962 415.24 256.941 413.766C260.403 411.064 264.112 409.59 268.069 409.099C272.026 408.607 275.735 409.344 279.197 411.31L275.488 424.084C274.993 424.084 274.251 423.839 273.509 423.593C272.768 423.347 272.026 423.102 271.284 423.102C270.542 423.102 269.553 423.102 268.811 423.102C267.822 423.347 267.08 423.593 266.091 424.33C264.854 425.313 264.112 426.295 263.865 427.524C263.618 428.752 263.865 429.981 264.607 431.209C265.349 432.192 266.585 432.929 267.822 433.174C269.305 433.42 270.542 433.42 272.026 433.42C273.51 433.42 274.993 433.174 276.23 432.929C277.466 432.683 278.703 432.437 279.445 432.192C281.176 431.946 282.907 431.7 284.143 431.946C285.627 432.192 286.863 432.437 287.853 433.174C288.842 433.666 289.831 434.403 290.82 435.385C291.562 436.368 292.551 437.105 293.293 438.088L282.412 446.686ZM296.755 465.111L287.605 453.565L298.734 444.966L307.884 456.513L296.755 465.111Z"
                fill="white" />
            <path
                d="M433.013 582.541C431.776 582.541 430.787 582.787 429.798 583.769C428.809 584.752 427.82 585.735 427.078 587.209C426.089 588.683 425.099 590.157 424.358 591.877C423.368 593.596 422.379 595.07 421.143 596.79C418.67 599.984 415.95 602.195 412.735 603.177C409.767 604.16 406.305 604.651 402.843 604.406C398.639 604.16 395.177 603.177 392.209 601.458C389.489 599.738 387.263 597.773 385.532 595.316C383.801 592.859 382.812 590.157 382.07 587.209C381.328 584.261 381.328 581.313 381.328 578.61C381.823 573.206 383.306 568.538 386.274 564.607C389.242 560.676 392.951 557.728 397.65 556.254L406.305 570.503C405.81 570.995 405.069 571.24 404.327 571.732C403.585 572.223 402.596 572.714 401.854 573.451C401.112 574.188 400.37 574.925 399.875 575.908C399.381 576.891 398.886 577.873 398.886 579.347C398.639 581.067 399.133 582.787 400.123 584.261C401.112 585.735 402.348 586.472 404.079 586.472C405.563 586.472 407.047 586.226 408.531 584.998C410.014 584.015 411.251 582.787 412.24 581.313C413.477 579.839 414.466 578.365 415.208 576.891C415.95 575.417 416.691 574.188 417.186 573.451C418.422 571.486 419.659 570.012 420.895 568.784C422.379 567.555 423.616 566.818 425.099 566.327C426.583 565.836 428.067 565.59 429.551 565.59C431.035 565.59 432.766 565.59 434.249 565.59L433.013 582.541ZM462.194 584.752L443.647 583.524L444.883 566.081L463.43 567.31L462.194 584.752Z"
                fill="white" />
            <path
                d="M551.471 679.58L535.644 705.13L511.409 690.39L527.236 665.086L551.471 679.58ZM526 719.625C525.01 721.344 524.763 723.064 525.258 725.275C525.752 727.24 526.741 729.451 527.978 731.908C529.214 734.365 530.698 736.822 532.429 739.278C534.16 741.981 535.644 744.683 536.881 747.631C539.601 753.527 540.59 759.177 539.848 764.337C539.106 769.496 537.128 774.655 534.16 779.568C530.451 785.464 526.494 789.641 522.043 792.343C517.592 795.045 512.893 796.765 507.947 797.256C503.248 797.748 498.302 797.256 493.604 796.028C488.905 794.8 484.454 792.834 480.497 790.378C473.078 785.71 467.39 780.059 463.681 772.935C459.971 765.811 458.735 758.441 459.971 750.333L487.174 748.614C487.421 749.596 487.421 751.07 487.421 752.544C487.421 754.018 487.669 755.492 487.916 757.212C488.163 758.932 488.905 760.406 489.894 761.88C490.884 763.354 492.12 764.828 494.098 765.811C496.571 767.285 499.292 768.022 502.012 767.776C504.732 767.53 506.958 766.302 508.442 763.845C509.678 761.634 510.173 759.178 509.925 756.475C509.431 753.773 508.689 751.07 507.452 748.122C506.216 745.42 504.732 742.718 503.248 740.507C501.765 738.05 500.528 736.33 499.786 735.102C497.808 731.908 496.571 728.96 496.077 726.258C495.582 723.555 495.335 720.853 495.829 718.396C496.077 715.94 496.819 713.729 498.055 711.272C499.044 709.061 500.281 706.85 501.765 704.639L526 719.625Z"
                fill="white" />
        </g>
    </g>
    <defs>
        <clipPath id="clip0_805_17265">
            <rect width="2012" height="686" fill="white" transform="translate(-206 0.514648)" />
        </clipPath>
    </defs>
</svg>