<svg width="1411" height="832" viewBox="0 0 1411 832" fill="none" xmlns="http://www.w3.org/2000/svg">
<path opacity="0.04" d="M1410.7 14.3476L66.8614 373.566L183.438 525.398C187.441 524.84 191.573 524.761 195.705 524.682C199.352 524.732 203.484 524.653 207.616 524.573C211.877 524.972 215.524 525.022 219.3 525.551C223.56 525.95 227.336 526.478 231.241 527.485C241.116 529.458 251.247 532.388 260.667 536.534C269.958 540.201 279.022 544.955 287.375 550.924C295.598 556.414 303.594 562.991 310.622 569.826C317.778 577.14 323.965 584.713 329.924 593.371C338.75 606.902 345.154 621.08 349.749 636.255C353.86 651.559 356.033 667.381 355.527 682.894C355.021 698.406 351.965 714.088 346.715 729.332C341.336 744.097 333.634 757.945 324.094 770.747C323.738 771.355 322.898 772.092 322.542 772.7C321.701 773.437 320.733 773.696 320.377 774.303C319.892 774.433 318.923 774.692 317.955 774.951C316.986 775.21 316.502 775.339 315.404 775.12C314.92 775.249 314.307 774.901 313.823 775.03L313.21 774.681C312.113 774.462 311.5 774.113 310.887 773.764C310.274 773.416 309.533 772.589 308.92 772.24C308.179 771.413 307.566 771.064 307.309 770.108L232.512 657.854C229.903 653.939 226.453 650.76 222.648 648.189C218.358 645.748 213.584 643.436 209.195 642.559C204.322 641.811 199.577 641.541 194.605 642.358C190.117 643.045 185.402 644.818 181.428 647.418C179.263 649.022 177.583 650.496 175.902 651.971C174.221 653.445 172.67 655.398 171.117 657.35C169.565 659.303 168.626 661.604 167.687 663.906C166.747 666.207 165.808 668.509 165.353 670.681C164.898 672.853 164.571 675.503 164.729 678.024C164.887 680.544 165.045 683.065 165.075 685.107C165.717 687.499 166.359 689.89 166.873 691.803C168 694.065 169.126 696.327 170.124 698.11L243.182 807.753C251.711 825.976 237.635 827.689 221.137 830.049C215.067 830.646 209.482 831.114 203.897 831.581C198.184 831.571 192.47 831.56 186.628 831.072C180.786 830.583 174.816 829.616 169.33 828.519C159.455 826.546 149.323 823.616 139.904 819.47C130.612 815.803 121.548 811.049 113.196 805.08C104.973 799.59 96.9764 793.013 89.949 786.178C82.7931 778.864 76.606 771.291 70.6463 762.633C62.8187 750.885 56.8001 738.142 52.719 724.88C48.638 711.619 45.8814 697.491 45.8038 683.672C45.1133 669.504 47.1018 655.645 50.1874 642.006C53.4013 628.844 58.6811 615.644 65.671 603.011L-77.9659 412.28L-748.148 591.426L-752.002 577.078L-89.0853 399.875L-70.1946 394.825L80.2423 593.477L82.9801 597.871L86.3304 602.614L83.4832 607.476L80.6358 612.338C74.2293 623.277 69.5327 634.784 67.0305 646.73C64.044 658.805 62.7678 671.448 62.9444 683.703C63.121 695.958 65.3636 708.173 69.0592 720C72.6265 731.348 78.2597 742.657 85.2175 753.099L87.0854 756.188C91.4341 762.715 96.6231 768.504 101.684 773.815C108.098 780.301 114.74 785.702 122.351 790.844C129.349 795.637 137.187 799.693 145.995 803.489C154.189 806.937 162.739 809.778 172.001 811.403C177.002 812.629 182.36 813.247 187.105 813.516C192.462 814.135 197.207 814.404 202.307 814.066C207.408 813.727 212.509 813.389 217.609 813.051C219.063 812.662 220.644 812.752 222.097 812.364L153.388 709.247C151.52 706.159 149.652 703.07 148.269 699.852C146.885 696.633 145.858 692.807 144.959 689.46C144.544 685.982 144 682.027 144.199 678.898C144.268 675.292 144.338 671.685 145.504 668.298C146.058 664.561 147.225 661.174 149.005 658.135C150.172 654.748 151.951 651.709 154.215 648.541C155.995 645.503 158.387 642.813 161.264 639.993C164.141 637.174 166.662 634.963 169.795 633.1L172.929 631.237L173.413 631.107C178.841 628.119 184.04 626.216 189.981 625.141C197.375 623.677 204.67 623.777 211.866 625.442C219.062 627.106 226.031 629.857 231.675 633.474C237.447 637.57 242.863 642.273 246.599 648.45L251.818 656.282L315.308 751.567C321.26 742.8 325.501 733.464 329.13 723.78C333.925 710.709 336.398 696.721 336.805 682.772C337.212 668.824 335.552 654.915 331.956 641.524C328.488 628.611 322.469 615.868 314.641 604.12C309.551 596.767 303.977 589.543 297.691 583.534C291.276 577.048 284.634 571.647 277.152 566.983C269.67 562.32 262.187 557.656 253.509 554.338C245.314 550.89 236.764 548.049 227.502 546.425C223.726 545.896 220.435 545.238 216.659 544.71C212.883 544.181 209.235 544.131 206.072 543.952C202.909 543.772 199.261 543.722 195.13 543.801C191.482 543.751 187.963 544.179 184.444 544.607L178.859 545.075L173.274 545.543L169.923 540.8L167.186 536.406L36.8517 366.211L56.2266 361.032L57.1952 360.773L1406.84 7.98657e-05L1410.7 14.3476Z" fill="white"/>
</svg>
